<?xml version="1.0" encoding="UTF-8" standalone="no"?>
<svg
   xmlns:dc="http://purl.org/dc/elements/1.1/"
   xmlns:cc="http://creativecommons.org/ns#"
   xmlns:rdf="http://www.w3.org/1999/02/22-rdf-syntax-ns#"
   xmlns:svg="http://www.w3.org/2000/svg"
   xmlns="http://www.w3.org/2000/svg"
   xmlns:xlink="http://www.w3.org/1999/xlink"
   xmlns:sodipodi="http://sodipodi.sourceforge.net/DTD/sodipodi-0.dtd"
   xmlns:inkscape="http://www.inkscape.org/namespaces/inkscape"
   inkscape:version="1.0 (4035a4f, 2020-05-01)"
   height="499.76682"
   width="600"
   sodipodi:docname="logo_fftri.svg"
   xml:space="preserve"
   viewBox="0 0 599.99998 499.76682"
   y="0px"
   x="0px"
   id="Calque_1"
   version="1.1"><metadata
   id="metadata916"><rdf:RDF><cc:Work
       rdf:about=""><dc:format>image/svg+xml</dc:format><dc:type
         rdf:resource="http://purl.org/dc/dcmitype/StillImage" /></cc:Work></rdf:RDF></metadata><defs
   id="defs914"><linearGradient
     id="linearGradient1662"
     inkscape:collect="always"><stop
       id="stop1658"
       offset="0"
       style="stop-color:#cd0b2a;stop-opacity:1" /><stop
       id="stop1660"
       offset="1"
       style="stop-color:#8f292a;stop-opacity:1" /></linearGradient><linearGradient
     id="linearGradient1654"
     inkscape:collect="always"><stop
       id="stop1650"
       offset="0"
       style="stop-color:#166aa7;stop-opacity:1" /><stop
       id="stop1652"
       offset="1"
       style="stop-color:#0d4178;stop-opacity:1" /></linearGradient><linearGradient
     id="linearGradient1646"
     inkscape:collect="always"><stop
       id="stop1642"
       offset="0"
       style="stop-color:#192951;stop-opacity:1" /><stop
       id="stop1644"
       offset="1"
       style="stop-color:#226ea0;stop-opacity:1" /></linearGradient><linearGradient
     id="linearGradient1633"
     inkscape:collect="always"><stop
       id="stop1629"
       offset="0"
       style="stop-color:#c80722;stop-opacity:1" /><stop
       id="stop1631"
       offset="1"
       style="stop-color:#991b28;stop-opacity:1" /></linearGradient><linearGradient
     gradientUnits="userSpaceOnUse"
     y2="100.7"
     x2="64.5"
     y1="88.800003"
     x1="64.5"
     id="linearGradient1635"
     xlink:href="#linearGradient1633"
     inkscape:collect="always" /><linearGradient
     gradientUnits="userSpaceOnUse"
     y2="34.850922"
     x2="59.55109"
     y1="34.512562"
     x1="1.0150753"
     id="linearGradient1648"
     xlink:href="#linearGradient1646"
     inkscape:collect="always" /><linearGradient
     gradientUnits="userSpaceOnUse"
     y2="10.9"
     x2="121.3"
     y1="7.7822447"
     x1="67.333336"
     id="linearGradient1656"
     xlink:href="#linearGradient1654"
     inkscape:collect="always" /><linearGradient
     gradientUnits="userSpaceOnUse"
     y2="4.3066001"
     x2="101.2051"
     y1="4.5999999"
     x1="109.1"
     id="linearGradient1664"
     xlink:href="#linearGradient1662"
     inkscape:collect="always" /><linearGradient
     y2="100.7"
     x2="64.5"
     y1="88.800003"
     x1="64.5"
     gradientUnits="userSpaceOnUse"
     id="linearGradient1712"
     xlink:href="#linearGradient1633"
     inkscape:collect="always" /><linearGradient
     y2="100.7"
     x2="64.5"
     y1="88.800003"
     x1="64.5"
     gradientUnits="userSpaceOnUse"
     id="linearGradient1714"
     xlink:href="#linearGradient1633"
     inkscape:collect="always" /><linearGradient
     y2="100.7"
     x2="64.5"
     y1="88.800003"
     x1="64.5"
     gradientUnits="userSpaceOnUse"
     id="linearGradient1716"
     xlink:href="#linearGradient1633"
     inkscape:collect="always" /><linearGradient
     y2="100.7"
     x2="64.5"
     y1="88.800003"
     x1="64.5"
     gradientUnits="userSpaceOnUse"
     id="linearGradient1718"
     xlink:href="#linearGradient1633"
     inkscape:collect="always" /><linearGradient
     y2="100.7"
     x2="64.5"
     y1="88.800003"
     x1="64.5"
     gradientUnits="userSpaceOnUse"
     id="linearGradient1720"
     xlink:href="#linearGradient1633"
     inkscape:collect="always" /><linearGradient
     y2="100.7"
     x2="64.5"
     y1="88.800003"
     x1="64.5"
     gradientUnits="userSpaceOnUse"
     id="linearGradient1722"
     xlink:href="#linearGradient1633"
     inkscape:collect="always" /><linearGradient
     y2="100.7"
     x2="64.5"
     y1="88.800003"
     x1="64.5"
     gradientUnits="userSpaceOnUse"
     id="linearGradient1724"
     xlink:href="#linearGradient1633"
     inkscape:collect="always" /><linearGradient
     y2="100.7"
     x2="64.5"
     y1="88.800003"
     x1="64.5"
     gradientUnits="userSpaceOnUse"
     id="linearGradient1726"
     xlink:href="#linearGradient1633"
     inkscape:collect="always" /><linearGradient
     y2="100.7"
     x2="64.5"
     y1="88.800003"
     x1="64.5"
     gradientUnits="userSpaceOnUse"
     id="linearGradient1728"
     xlink:href="#linearGradient1633"
     inkscape:collect="always" /><linearGradient
     y2="34.850922"
     x2="59.55109"
     y1="34.512562"
     x1="1.0150753"
     gradientUnits="userSpaceOnUse"
     id="linearGradient1730"
     xlink:href="#linearGradient1646"
     inkscape:collect="always" /><linearGradient
     y2="34.850922"
     x2="59.55109"
     y1="34.512562"
     x1="1.0150753"
     gradientUnits="userSpaceOnUse"
     id="linearGradient1732"
     xlink:href="#linearGradient1646"
     inkscape:collect="always" /><linearGradient
     y2="34.850922"
     x2="59.55109"
     y1="34.512562"
     x1="1.0150753"
     gradientUnits="userSpaceOnUse"
     id="linearGradient1734"
     xlink:href="#linearGradient1646"
     inkscape:collect="always" /></defs><sodipodi:namedview
   inkscape:current-layer="Calque_1"
   inkscape:window-maximized="0"
   inkscape:window-y="0"
   inkscape:window-x="0"
   inkscape:cy="103.90598"
   inkscape:cx="126.47687"
   inkscape:zoom="0.73886139"
   showgrid="false"
   id="namedview912"
   inkscape:window-height="900"
   inkscape:window-width="1440"
   inkscape:pageshadow="2"
   inkscape:pageopacity="0"
   guidetolerance="10"
   gridtolerance="10"
   objecttolerance="10"
   borderopacity="1"
   bordercolor="#666666"
   pagecolor="#ffffff" />
<style
   id="style833"
   type="text/css">
	.st0{fill:#FFFFFF;}
</style>







<g
   style="stroke-width:0.202167"
   transform="matrix(4.9464138,0,0,4.9464138,0,0.17902751)"
   id="g1675"><path
     class="st0"
     d="m 88.5,10.8 c -5,0.2 -10.7,5 -1.4,8.9 8,3.4 23,5.2 3,21 0,0 31.1,-17.8 5.4,-23.1 -13.9,-2.9 -10,-6.4 -7,-6.8"
     id="path835"
     style="fill:#bf112a;fill-opacity:1;stroke-width:0.202167" /><path
     class="st0"
     d="m 66.8,3.5 c 0,0 12.9,-9.7 30.6,4.1 16.4,12.8 23.9,3.3 23.9,3.3 0,0 -11.5,17.8 -27.4,-0.8 C 80.8,-5.1 66.8,3.5 66.8,3.5"
     id="path837"
     style="fill:url(#linearGradient1656);fill-opacity:1;stroke-width:0.202167" /><path
     class="st0"
     d="m 109.1,4.6 c -0.3,2.2 -2.3,3.8 -4.6,3.5 -2.3,-0.3 -3.8,-2.3 -3.6,-4.6 0.3,-2.2 2.3,-3.8 4.6,-3.5 2.3,0.3 3.8,2.4 3.6,4.6"
     id="path839"
     style="fill:url(#linearGradient1664);fill-opacity:1;stroke-width:0.202167" /><path
     class="st0"
     d="m 88.8,23.7 c 0,0 -1.5,3.1 -4.3,6.8 -0.2,0.2 -0.3,0.5 -0.5,0.7 -4.3,5.5 -11.5,12.1 -21.1,12.5 0,0 0,0 0,0 4.6,-0.1 12.8,-1.5 21.6,-8.4 0.3,-0.3 0.7,-0.5 1,-0.8 2.7,-2.2 5.4,-4.9 8.1,-8.2 0.1,-1.2 -4.8,-2.6 -4.8,-2.6"
     id="path845"
     style="fill:#bf112a;fill-opacity:1;stroke-width:0.202167" /><g
     id="g1640"
     style="fill:url(#linearGradient1648);fill-opacity:1;stroke-width:0.0408714"><path
       style="fill:url(#linearGradient1730);fill-opacity:1;stroke-width:0.202167"
       id="path841"
       d="m 30,34.3 v 0 c 8.6,2.8 16.1,3.5 24.7,1.7 -0.5,0.1 -8.2,1.2 -22.9,-4.1 v 0 C 23.2,29.1 14.8,28.6 7,35.2 7.5,34.9 15.3,29 30,34.3"
       class="st0" /><path
       style="fill:url(#linearGradient1732);fill-opacity:1;stroke-width:0.202167"
       id="path843"
       d="m 28.9,28.1 v 0 c 5.9,1.9 11.1,2.4 17,1.2 -0.4,0.1 -5.7,0.8 -15.8,-2.8 v 0 C 24.2,24.6 18.4,24.2 13,28.8 c 0.4,-0.3 5.8,-4.3 15.9,-0.7"
       class="st0" /><path
       style="fill:url(#linearGradient1734);fill-opacity:1;stroke-width:0.202167"
       id="path847"
       d="m 31.9,38.4 v 0 C 20.8,34.8 10,34.2 0,42.6 c 0.7,-0.5 10.7,-8 29.6,-1.2 v 0 c 10.4,3.4 19.6,4.4 29.8,2.6 0,0 0,0 0,0 -3.3,0.3 -10.8,-0.1 -27.5,-5.6"
       class="st0" /></g><path
     class="st0"
     d="m 85.5,34.6 c -0.3,0.3 -0.7,0.5 -1,0.8 -0.3,6.7 -5.8,12.1 -12.6,12.1 -3.5,0 -6.7,-1.4 -9,-3.7 0,0 0,0 0,0 -2.3,-2.3 -3.7,-5.4 -3.7,-8.9 0,-7 5.7,-12.6 12.7,-12.6 5.7,0 10.6,3.8 12.1,9 0.2,-0.2 0.4,-0.5 0.5,-0.7 -2.1,-5.3 -7.3,-9 -13.3,-9 -7.9,0 -14.4,6.4 -14.4,14.3 0,3 0.9,5.8 2.5,8.1 0,0 0,0 0,0 2.6,3.8 6.9,6.2 11.9,6.2 7.9,0 14.4,-6.4 14.4,-14.3 0,-0.4 0,-0.9 -0.1,-1.3"
     id="path849"
     style="fill:#b3b5b4;fill-opacity:1;stroke-width:0.202167" /></g>





























<g
   style="stroke-width:0.202167"
   transform="matrix(4.9464138,0,0,4.9464138,0,0.17902751)"
   id="g1710"><g
     id="g1627"
     style="fill:url(#linearGradient1635);fill-opacity:1;stroke-width:0.0408714"><polygon
       style="fill:url(#linearGradient1712);fill-opacity:1;stroke-width:0.202167"
       id="polygon851"
       points="11.6,91.5 11.6,88.8 20,88.8 20,91.5 17.5,91.5 17.5,100.7 14.1,100.7 14.1,91.5 "
       class="st0" /><path
       style="fill:url(#linearGradient1714);fill-opacity:1;stroke-width:0.202167"
       id="path853"
       d="m 24.8,94.1 h 0.6 c 0.4,0 1.6,0.1 1.6,-1.3 0,-1.3 -1.1,-1.2 -1.4,-1.2 H 24.8 Z M 26,88.8 c 1.4,0 1.9,0.1 2.6,0.4 0.1,0.1 0.5,0.2 0.7,0.5 0.4,0.4 1,1.3 1,2.7 0,0.5 0,1.6 -0.9,2.6 -0.1,0.1 -0.3,0.4 -0.7,0.6 -0.1,0.1 -0.3,0.2 -0.6,0.3 l 3.5,4.8 h -4 l -2.9,-4.1 v 4.1 h -3.2 v -12 H 26 Z"
       class="st0" /><rect
       style="fill:url(#linearGradient1716);fill-opacity:1;stroke-width:0.202167"
       id="rect855"
       height="12"
       width="3.5"
       class="st0"
       y="88.800003"
       x="33.700001" /><path
       style="fill:url(#linearGradient1718);fill-opacity:1;stroke-width:0.202167"
       id="path857"
       d="m 44.1,96.1 h 2.4 L 45.8,94 c -0.2,-0.7 -0.4,-1.4 -0.6,-2 -0.2,0.7 -0.4,1.4 -0.6,2.1 z m 3,-7.3 4.4,12 H 48 l -0.7,-2.1 h -4.1 l -0.7,2.1 H 39 l 4.4,-12 z"
       class="st0" /><polygon
       style="fill:url(#linearGradient1720);fill-opacity:1;stroke-width:0.202167"
       id="polygon859"
       points="51.1,91.5 51.1,88.8 59.5,88.8 59.5,91.5 57,91.5 57,100.7 53.6,100.7 53.6,91.5 "
       class="st0" /><polygon
       style="fill:url(#linearGradient1722);fill-opacity:1;stroke-width:0.202167"
       id="polygon861"
       points="68.4,100.7 68.4,96 64.5,96 64.5,100.7 61.1,100.7 61.1,88.8 64.5,88.8 64.5,93.2 68.4,93.2 68.4,88.8 71.8,88.8 71.8,100.7 "
       class="st0" /><polygon
       style="fill:url(#linearGradient1724);fill-opacity:1;stroke-width:0.202167"
       id="polygon863"
       points="78.7,88.8 78.7,97.9 82.5,97.9 82.5,100.7 75.3,100.7 75.3,88.8 "
       class="st0" /><path
       style="fill:url(#linearGradient1726);fill-opacity:1;stroke-width:0.202167"
       id="path865"
       d="m 88.2,91.6 c -0.8,0.4 -1.8,1.2 -1.8,3.2 0,0.2 0,0.8 0.2,1.4 0.4,1.3 1.5,2 2.9,2 0.8,0 1.7,-0.3 2.3,-0.9 0.6,-0.7 0.9,-1.7 0.9,-2.6 0,-2 -1.1,-2.9 -1.9,-3.2 -0.5,-0.2 -0.9,-0.2 -1.1,-0.2 -0.3,0 -0.9,0 -1.5,0.3 m 5.6,-1.9 c 0.8,0.6 2.4,2.2 2.4,4.9 0,0.7 -0.1,2.7 -1.6,4.3 -0.8,0.9 -2.4,2.1 -5.2,2.1 -2.6,0 -4.1,-1.1 -4.8,-1.9 C 84,98.6 83,97 83,94.8 c 0,-0.7 0.1,-2.9 1.8,-4.5 1.8,-1.8 4.2,-1.8 5,-1.8 1.4,0 2.8,0.2 4,1.2"
       class="st0" /><path
       style="fill:url(#linearGradient1728);fill-opacity:1;stroke-width:0.202167"
       id="path867"
       d="m 102,88.8 4.4,5.7 c 0.4,0.5 0.7,1 1,1.4 0,-0.6 0,-1.1 0,-1.7 l -0.1,-5.4 h 3.4 v 12 h -3.4 l -4.2,-5.6 c -0.2,-0.3 -0.5,-0.7 -0.7,-1 -0.2,-0.2 -0.3,-0.4 -0.4,-0.6 0,0.6 0,1.2 0,1.8 l 0.1,5.4 h -3.4 v -12 z"
       class="st0" /></g><g
     id="g1616"
     style="fill:#2e4770;fill-opacity:1;stroke-width:0.202167"><polygon
       style="fill:#2e4770;fill-opacity:1;stroke-width:0.202167"
       id="polygon869"
       points="12.7,80.1 12.7,84 11.6,84 11.6,75.9 15.5,75.9 15.5,77.1 12.7,77.1 12.7,79 15.5,79 15.5,80.1 "
       class="st0" /><path
       style="fill:#2e4770;fill-opacity:1;stroke-width:0.202167"
       id="path871"
       d="m 20.2,77.1 v 2.5 h 0.9 c 0.5,0 1,-0.1 1.2,-0.6 0.1,-0.1 0.2,-0.4 0.2,-0.8 0,-0.1 0,-0.6 -0.4,-0.9 -0.3,-0.2 -0.6,-0.2 -0.9,-0.2 z M 23.1,84 20.6,80.6 H 20.1 V 84 H 19 v -8 h 2.4 c 0.6,0 1.1,0.1 1.5,0.4 0.6,0.4 0.8,1.1 0.8,1.8 0,0.3 -0.1,1.4 -1,2 -0.2,0.1 -0.3,0.2 -0.7,0.3 0.4,0.5 0.7,1.1 1.1,1.6 0.3,0.4 0.6,0.8 0.9,1.2 0.2,0.2 0.3,0.5 0.5,0.7 z"
       class="st0" /><path
       style="fill:#2e4770;fill-opacity:1;stroke-width:0.202167"
       id="path873"
       d="m 29.7,81 h 2.6 L 31,78.2 Z m 5.1,3 h -1.3 l -0.8,-2 h -3.5 l -0.9,2 H 27 l 4,-8.5 z"
       class="st0" /><path
       style="fill:#2e4770;fill-opacity:1;stroke-width:0.202167"
       id="path875"
       d="m 44,76 h 1.2 v 8.3 C 44.3,83.4 43.4,82.4 42.4,81.5 41.9,81 41.3,80.4 40.8,79.8 40.2,79.2 39.7,78.6 39.2,78 c 0,0.4 0.1,0.8 0.1,1.2 0,0.3 0,0.7 0,1 V 84 h -1.2 v -8.6 c 1.1,1.1 2.3,2.2 3.4,3.4 0.9,0.9 1.8,1.8 2.6,2.7 0,-0.3 -0.1,-0.5 -0.1,-0.8 0,-0.2 0,-0.4 0,-0.7 z"
       class="st0" /><path
       style="fill:#2e4770;fill-opacity:1;stroke-width:0.202167"
       id="path877"
       d="m 53.4,84.7 -1.1,1.5 -0.6,-0.3 1,-1.5 z m 1.7,-7 c -0.1,-0.1 -0.3,-0.2 -0.4,-0.3 -0.3,-0.2 -0.8,-0.5 -1.6,-0.5 -0.9,0 -1.9,0.4 -2.4,1.2 -0.5,0.7 -0.6,1.6 -0.6,1.9 0,0.2 0,0.8 0.3,1.3 0.5,1 1.6,1.7 2.7,1.7 0.8,0 1.3,-0.3 2,-0.8 v 1.4 c -0.4,0.2 -1,0.5 -2,0.5 -0.5,0 -1.7,-0.1 -2.8,-1 -0.5,-0.4 -1.4,-1.4 -1.4,-3.1 0,-1 0.3,-2 1,-2.8 0.8,-0.9 2,-1.4 3.2,-1.4 0.8,0 1.3,0.2 2,0.5 z"
       class="st0" /><path
       style="fill:#2e4770;fill-opacity:1;stroke-width:0.202167"
       id="path879"
       d="m 60.6,81 h 2.6 L 62,78.2 Z m 5.1,3 h -1.3 l -0.8,-2 h -3.5 l -0.9,2 h -1.3 l 4,-8.5 z"
       class="st0" /><rect
       style="fill:#2e4770;fill-opacity:1;stroke-width:0.202167"
       id="rect881"
       height="8"
       width="1.2"
       class="st0"
       y="75.900002"
       x="69" /><path
       style="fill:#2e4770;fill-opacity:1;stroke-width:0.202167"
       id="path883"
       d="m 77.8,77.7 c -0.1,-0.1 -0.1,-0.2 -0.2,-0.3 -0.4,-0.5 -0.8,-0.6 -1.1,-0.6 -0.2,0 -0.3,0 -0.5,0.1 -0.5,0.2 -0.6,0.7 -0.6,0.9 0,0.6 0.5,0.8 0.7,0.8 l 1.5,0.7 c 0.2,0.1 0.4,0.2 0.6,0.4 0.8,0.6 0.9,1.4 0.9,1.7 0,0.2 0,0.5 -0.2,0.9 -0.4,1 -1.3,1.7 -2.4,1.7 -0.3,0 -1.1,-0.1 -1.8,-0.6 -0.5,-0.5 -0.8,-1 -1,-1.7 l 1.1,-0.2 c 0.2,0.4 0.3,0.6 0.4,0.8 0.3,0.4 0.8,0.8 1.3,0.8 0.3,0 0.5,-0.1 0.6,-0.1 0.5,-0.2 0.8,-0.7 0.8,-1.3 0,-0.6 -0.4,-1 -0.9,-1.3 -0.5,-0.3 -1.2,-0.4 -1.7,-0.8 -0.9,-0.5 -1,-1.3 -1,-1.7 0,-0.2 0.1,-0.8 0.5,-1.3 0.2,-0.3 0.8,-0.8 1.8,-0.8 0.3,0 1,0.1 1.6,0.6 0.3,0.2 0.5,0.5 0.7,0.8 z"
       class="st0" /><polygon
       style="fill:#2e4770;fill-opacity:1;stroke-width:0.202167"
       id="polygon885"
       points="84.1,80.1 84.1,82.9 87.3,82.9 87.3,84 82.9,84 82.9,76 87.3,76 87.3,77.1 84.1,77.1 84.1,79 87.3,79 87.3,80.1 "
       class="st0" /><path
       style="fill:#2e4770;fill-opacity:1;stroke-width:0.202167"
       id="path887"
       d="m 97.4,82.9 c 0.3,0 0.5,0 0.8,0 1.1,0 2,-0.4 2.6,-1.3 0.2,-0.3 0.5,-0.9 0.5,-1.7 0,-1.4 -0.9,-2.1 -1.3,-2.3 -0.8,-0.5 -1.8,-0.5 -2.7,-0.4 v 5.7 z m -1.1,1 v -8 c 1.6,0 2,0 3,0.1 0.7,0.1 0.9,0.2 1.3,0.4 1.3,0.7 1.9,2 1.9,3.4 0,0.5 -0.1,1.7 -1,2.8 -0.5,0.5 -0.9,0.8 -1.2,0.9 -0.5,0.2 -1,0.3 -2.1,0.4 z"
       class="st0" /><polygon
       style="fill:#2e4770;fill-opacity:1;stroke-width:0.202167"
       id="polygon889"
       points="107.4,80.1 107.4,82.9 110.6,82.9 110.6,84 106.2,84 106.2,76 110.6,76 110.6,77.1 107.4,77.1 107.4,79 110.6,79 110.6,80.1 "
       class="st0" /></g><g
     id="g1603"
     style="fill:#2e4770;fill-opacity:1;stroke-width:0.202167"><polygon
       style="fill:#2e4770;fill-opacity:1;stroke-width:0.202167"
       id="polygon891"
       points="12.3,67 12.3,71.4 11.6,71.4 11.6,62.6 15.1,62.6 15.1,63.3 12.3,63.3 12.3,66.3 15.1,66.3 15.1,67 "
       class="st0" /><path
       style="fill:#2e4770;fill-opacity:1;stroke-width:0.202167"
       id="path893"
       d="m 24.2,61.1 -2.2,0.8 -0.3,-0.5 2.1,-1.1 z m 0.5,1.5 v 0.6 h -3.4 v 3.1 h 3.4 V 67 h -3.4 v 3.7 h 3.5 v 0.7 h -4.2 v -8.8 z"
       class="st0" /><path
       style="fill:#2e4770;fill-opacity:1;stroke-width:0.202167"
       id="path895"
       d="m 30.7,70.7 c 0.3,0 0.7,0 1,0 0.5,0 2,-0.1 3.1,-1.3 0.9,-0.9 0.9,-1.9 0.9,-2.4 0,-1.8 -1.1,-2.8 -1.6,-3.2 -1,-0.7 -2.2,-0.6 -3.5,-0.6 v 7.5 z M 30,62.6 c 1.5,-0.1 1.8,0 2.7,0.1 0.2,0 0.5,0.1 0.7,0.1 0.4,0.1 1.1,0.3 1.8,1 0.4,0.4 1.2,1.5 1.2,3.1 0,0.5 -0.1,0.9 -0.1,1.1 -0.1,0.5 -0.6,1.8 -1.9,2.6 -1.4,0.9 -2.9,0.8 -4.5,0.8 v -8.8 z"
       class="st0" /><path
       style="fill:#2e4770;fill-opacity:1;stroke-width:0.202167"
       id="path897"
       d="M 45.5,61.1 43.3,62 43,61.5 45.1,60.4 Z m 0.5,1.5 v 0.6 h -3.4 v 3.1 H 46 V 67 h -3.4 v 3.7 h 3.5 v 0.7 h -4.2 v -8.8 z"
       class="st0" /><path
       style="fill:#2e4770;fill-opacity:1;stroke-width:0.202167"
       id="path899"
       d="m 52.6,66.7 c 0.4,0 0.9,0 1.3,0 0.3,0 0.9,-0.1 1.4,-0.8 0.1,-0.2 0.3,-0.5 0.3,-1 0,-0.6 -0.3,-1.1 -0.8,-1.4 -0.5,-0.3 -1,-0.3 -2.2,-0.2 z m 4.2,4.7 h -0.9 l -3.2,-4.3 v 4.2 H 52 v -8.8 c 0.5,0 1.1,-0.1 2.3,0 0.3,0.1 0.6,0.1 0.8,0.2 0.8,0.4 1.3,1.2 1.3,2.1 0,0.3 -0.1,1.1 -0.7,1.8 -0.5,0.5 -1.1,0.6 -1.8,0.7 z"
       class="st0" /><path
       style="fill:#2e4770;fill-opacity:1;stroke-width:0.202167"
       id="path901"
       d="m 63.2,67.8 h 3.1 l -1.5,-3.9 z m 1.7,-5.4 3.6,9 H 67.7 L 66.6,68.5 H 63 l -1.2,2.9 H 61 l 3.7,-9 z"
       class="st0" /><polygon
       style="fill:#2e4770;fill-opacity:1;stroke-width:0.202167"
       id="polygon903"
       points="71.4,62.6 76.9,62.6 76.9,63.3 74.5,63.3 74.5,71.4 73.8,71.4 73.8,63.3 71.4,63.3 "
       class="st0" /><rect
       style="fill:#2e4770;fill-opacity:1;stroke-width:0.202167"
       id="rect905"
       height="8.8000002"
       width="0.69999999"
       class="st0"
       y="62.599998"
       x="81.900002" /><path
       style="fill:#2e4770;fill-opacity:1;stroke-width:0.202167"
       id="path907"
       d="m 89.6,69.4 c 0.7,0.9 1.9,1.5 3,1.5 0.5,0 1.5,-0.1 2.5,-0.9 0.9,-0.7 1.5,-1.8 1.5,-3 0,-0.5 -0.1,-1.6 -1,-2.6 -0.7,-0.8 -1.8,-1.3 -2.9,-1.3 -0.9,0 -1.8,0.3 -2.4,0.9 -0.9,0.7 -1.4,1.8 -1.5,2.9 -0.1,0.8 0.2,1.8 0.8,2.5 m -0.4,-5.5 c 1.2,-1.3 2.8,-1.5 3.4,-1.5 1.1,0 2.2,0.4 3.1,1.2 0.9,0.8 1.5,2.1 1.5,3.4 0,0.6 -0.1,1.9 -1.2,3.1 -1.2,1.4 -2.8,1.5 -3.4,1.5 -0.6,0 -2,-0.1 -3.1,-1.2 -0.9,-0.9 -1.5,-2.2 -1.4,-3.5 0,-0.6 0.1,-1.9 1.1,-3"
       class="st0" /><path
       style="fill:#2e4770;fill-opacity:1;stroke-width:0.202167"
       id="path909"
       d="m 102.9,62.4 6.9,7.6 v -7.4 h 0.7 v 9 h -0.2 c -0.9,-1.1 -1.9,-2.2 -2.8,-3.2 -1.3,-1.5 -2.7,-3 -4,-4.4 v 7.4 h -0.7 v -9 z"
       class="st0" /></g></g>
</svg>
