<?xml version="1.0" encoding="UTF-8" standalone="no"?>
<svg
   xmlns:dc="http://purl.org/dc/elements/1.1/"
   xmlns:cc="http://creativecommons.org/ns#"
   xmlns:rdf="http://www.w3.org/1999/02/22-rdf-syntax-ns#"
   xmlns:svg="http://www.w3.org/2000/svg"
   xmlns="http://www.w3.org/2000/svg"
   xmlns:xlink="http://www.w3.org/1999/xlink"
   xmlns:sodipodi="http://sodipodi.sourceforge.net/DTD/sodipodi-0.dtd"
   xmlns:inkscape="http://www.inkscape.org/namespaces/inkscape"
   sodipodi:docname="LogoUfolep.svg"
   inkscape:version="1.0beta1 (76ce730, 2019-10-19)"
   version="1.1"
   id="svg4983"
   height="138.39241"
   width="500.00003">
  <defs
     id="defs4985">
    <linearGradient
       id="linearGradient4232"
       spreadMethod="pad"
       gradientTransform="matrix(272.64749,0,0,-272.64749,139.22879,795.72101)"
       gradientUnits="userSpaceOnUse"
       y2="0"
       x2="1"
       y1="0"
       x1="0">
      <stop
         id="stop4234"
         offset="0"
         style="stop-opacity:1;stop-color:#b53387" />
      <stop
         id="stop4236"
         offset="0.236267"
         style="stop-opacity:1;stop-color:#e20054" />
      <stop
         id="stop4238"
         offset="0.472534"
         style="stop-opacity:1;stop-color:#ee8010" />
      <stop
         id="stop4240"
         offset="0.736267"
         style="stop-opacity:1;stop-color:#afcc57" />
      <stop
         id="stop4242"
         offset="1"
         style="stop-opacity:1;stop-color:#04a1a0" />
    </linearGradient>
    <linearGradient
       y2="0"
       x2="1"
       y1="0"
       x1="0"
       spreadMethod="pad"
       gradientTransform="matrix(272.64749,0,0,-272.64749,139.22879,795.72101)"
       gradientUnits="userSpaceOnUse"
       id="linearGradient5507"
       xlink:href="#linearGradient4232"
       inkscape:collect="always" />
  </defs>
  <sodipodi:namedview
     inkscape:document-rotation="0"
     inkscape:window-maximized="0"
     inkscape:window-y="23"
     inkscape:window-x="0"
     inkscape:window-height="788"
     inkscape:window-width="1440"
     showgrid="false"
     inkscape:current-layer="layer1"
     inkscape:document-units="px"
     inkscape:cy="267.90277"
     inkscape:cx="140.01065"
     inkscape:zoom="0.7"
     inkscape:pageshadow="2"
     inkscape:pageopacity="0.0"
     borderopacity="1.0"
     bordercolor="#666666"
     pagecolor="#ffffff"
     id="base" />
  <metadata
     id="metadata4988">
    <rdf:RDF>
      <cc:Work
         rdf:about="">
        <dc:format>image/svg+xml</dc:format>
        <dc:type
           rdf:resource="http://purl.org/dc/dcmitype/StillImage" />
        <dc:title />
      </cc:Work>
    </rdf:RDF>
  </metadata>
  <g
     transform="translate(-187.54806,-307.57317)"
     id="layer1"
     inkscape:groupmode="layer"
     inkscape:label="Calque 1">
    <g
       id="g1037">
      <g
         style="opacity:1;stroke-width:0.744094;stop-opacity:1"
         id="g4230"
         transform="matrix(1.6798947,0,0,-1.6798947,-62.451857,1618.437)">
        <path
           inkscape:connector-curvature="0"
           id="path4244"
           style="fill:url(#linearGradient5507);stroke:none;stroke-width:0.744094"
           d="m 253.346,780.244 c -2.923,-0.531 -10.891,-1.771 -17.001,-14.874 v 0 c 0,0 -0.352,-1.063 -2.301,-1.594 v 0 c -1.948,-0.531 -6.906,-0.531 -7.171,-2.213 v 0 c -0.266,-1.683 0,-5.756 1.947,-6.287 v 0 c 1.948,-0.531 4.073,-0.177 4.338,0 v 0 c 0.266,0.178 0.797,0.178 0.178,-1.771 v 0 c -0.619,-1.947 -6.02,-18.416 -6.463,-22.223 v 0 c 0,0 -1.24,-5.312 0.442,-6.109 v 0 c 1.683,-0.796 6.021,-1.593 7.968,4.957 v 0 c 1.949,6.553 5.402,26.032 6.11,26.652 v 0 c 0.708,0.619 14.697,5.311 19.213,7.791 v 0 c 4.515,2.479 5.578,4.781 3.807,4.515 v 0 c -1.771,-0.266 -17.709,-3.099 -20.365,-3.453 v 0 c -1.333,-0.178 0.548,2.19 2.908,4.557 v 0 c 2.34,2.347 5.152,4.694 5.769,4.562 v 0 c 1.241,-0.265 0.886,-1.415 2.125,-2.656 v 0 c 1.24,-1.238 5.048,-1.062 5.49,2.745 v 0 c 0.397,3.419 -3.205,5.481 -6.059,5.482 v 0 c -0.324,0 -0.638,-0.027 -0.935,-0.081 m 42.498,-6.816 c -1.418,-3.276 -13.015,-37.54 -17.265,-44.27 v 0 c 0,0 -1.86,-2.744 -0.531,-4.515 v 0 c 1.327,-1.77 2.39,-2.656 2.39,-2.656 v 0 c 0,0 18.593,28.068 22.842,45.775 v 0 c 1.977,8.232 0.813,10.743 -1.139,10.743 v 0 c -2.247,10e-4 -5.539,-3.323 -6.297,-5.077 m -87.919,-34.62 c 0,-0.443 0.177,-2.656 -1.594,-1.151 v 0 c -1.77,1.506 -2.744,1.594 -3.718,1.505 v 0 c -0.973,-0.088 -3.896,-3.719 -6.552,-3.984 v 0 c -2.655,-0.266 1.239,9.12 1.239,9.12 v 0 c 1.594,4.958 9.74,13.9 5.843,17.53 v 0 c -1.238,1.241 -3.54,1.505 -3.54,1.505 v 0 c -3.276,0.62 -10.714,-15.14 -11.688,-22.754 v 0 c -0.974,-7.615 0.443,-12.927 0.443,-12.927 v 0 c 3.188,-6.464 14.785,3.276 16.203,5.49 v 0 c 1.418,2.213 1.77,2.125 2.036,1.77 v 0 c 0.265,-0.354 -0.531,-6.729 -0.354,-8.234 v 0 c 0.177,-1.505 2.833,1.328 5.578,3.896 v 0 c 2.744,2.567 12.306,24.525 12.927,27.358 v 0 c 0.62,2.833 -3.011,4.869 -6.552,6.11 v 0 c -0.082,0.028 -0.167,0.043 -0.252,0.043 v 0 c -3.598,0.002 -10.019,-24.844 -10.019,-25.277 m 127.406,4.075 c -3.631,-12.396 -8.765,-29.218 -10.802,-35.151 v 0 c -2.037,-5.932 -2.568,-8.322 -1.682,-8.588 v 0 c 0.886,-0.265 2.212,0.885 5.578,6.73 v 0 c 3.364,5.842 11.775,21.603 11.775,21.603 v 0 c 0,0 11.776,-1.772 19.656,6.64 v 0 c 7.88,8.411 14.166,21.692 0.443,26.297 v 0 c -3.807,0.796 -8.5,-1.594 -8.5,-1.594 v 0 c 0,0 -3.098,4.957 -6.286,4.957 v 0 c -3.188,0 -6.552,-8.499 -10.182,-20.894 m 24.613,10.8 c 1.24,0 3.277,-0.972 0.708,-4.78 v 0 c -2.567,-3.807 -16.201,-18.416 -18.061,-18.859 v 0 c -1.859,-0.443 -1.859,0 -1.859,0 v 0 l 7.615,20.895 c 0,0 1.594,1.682 3.452,-0.709 v 0 c 0.316,-0.406 0.724,-0.574 1.189,-0.574 v 0 c 2.274,-10e-4 5.928,4.027 6.956,4.027 m -49.759,2.654 c -6.907,-7.791 -16.822,-21.159 -13.635,-25.941 v 0 c 3.188,-4.78 12.218,-8.677 23.375,0.885 v 0 c 3.63,4.073 -1.064,6.464 -4.162,4.516 v 0 c -3.099,-1.948 -6.906,-6.109 -10.447,-3.896 v 0 c -3.541,2.214 -0.886,6.375 4.603,7.349 v 0 c 5.49,0.974 18.064,4.25 20.012,8.765 v 0 c 1.948,4.516 2.478,14.874 -6.642,15.228 v 0 c 0,0 -0.212,0.031 -0.603,0.031 v 0 c -1.717,0 -6.874,-0.588 -12.501,-6.937 m 7.084,-3.184 c 2.479,2.834 6.109,4.782 7.791,3.365 v 0 c 1.682,-1.417 -1.682,-5.667 -2.744,-7.173 v 0 c -1.063,-1.505 -8.589,-1.681 -8.589,-1.681 v 0 c -0.176,1.417 1.063,2.656 3.542,5.489 m -53.832,8.763 c -2.39,-1.24 -10.978,-7.082 -13.723,-16.645 v 0 c -2.745,-9.562 0.886,-17.708 5.312,-19.037 v 0 c 4.427,-1.327 14.788,-3.01 21.072,10.183 v 0 c 4.517,11.686 2.392,12.572 3.63,14.342 v 0 c 1.24,1.772 7.969,7.262 7.969,8.324 v 0 c 0,1.062 -0.619,1.328 -2.567,0.088 v 0 c -1.949,-1.24 -5.046,-2.39 -6.375,-2.39 v 0 c -1.328,0 -4.605,5.754 -8.942,5.931 v 0 c 0,0 -0.693,0.078 -1.675,0.078 v 0 c -1.373,0 -3.308,-0.152 -4.701,-0.874 m -6.552,-29.572 c -2.478,2.391 -0.796,10.093 1.063,13.546 v 0 c 1.859,3.454 8.943,12.308 8.411,8.5 v 0 c 0,0 -1.682,-6.197 3.365,-6.994 v 0 c 5.047,-0.797 -0.266,-7.084 -2.568,-10.094 v 0 c -1.837,-2.403 -5.702,-5.65 -8.45,-5.65 v 0 c -0.696,0 -1.319,0.208 -1.821,0.692" />
      </g>
      <g
         id="g998">
        <path
           d="m 194.02237,445.5814 v -18.05047 h -6.47431 v -3.67561 h 17.33819 v 3.67561 h -6.45919 v 18.05047 z"
           style="opacity:1;fill:#58585a;fill-opacity:1;fill-rule:nonzero;stroke:none;stroke-width:1;stop-opacity:1"
           id="path4248"
           inkscape:connector-curvature="0" />
        <path
           d="m 206.28628,434.8519 c 0,-2.2141 0.33262,-4.07039 0.99785,-5.57221 0.49557,-1.10705 1.17257,-2.09987 2.031,-2.97846 0.85842,-0.88026 1.79748,-1.53206 2.82054,-1.95707 1.35904,-0.57285 2.92638,-0.86011 4.70371,-0.86011 3.21363,0 5.78555,0.9945 7.71575,2.98013 1.9302,1.98564 2.89446,4.74738 2.89446,8.28356 0,3.50762 -0.95754,6.25257 -2.87094,8.23317 -1.91676,1.98059 -4.47524,2.97005 -7.68048,2.97005 -3.24555,0 -5.82419,-0.98442 -7.73927,-2.95661 -1.91508,-1.97052 -2.87262,-4.68523 -2.87262,-8.14245 m 4.53907,-0.14783 c 0,2.45936 0.57117,4.32405 1.71182,5.59405 1.14064,1.27 2.58871,1.905 4.34588,1.905 1.75549,0 3.19684,-0.62996 4.32405,-1.88989 1.12553,-1.25992 1.6883,-3.1498 1.6883,-5.66964 0,-2.4896 -0.54765,-4.34589 -1.64462,-5.57221 -1.09697,-1.22464 -2.55176,-1.83781 -4.36773,-1.83781 -1.81596,0 -3.27915,0.61989 -4.39124,1.85965 -1.11041,1.24144 -1.66646,3.11116 -1.66646,5.61085"
           style="opacity:1;fill:#58585a;fill-opacity:1;fill-rule:nonzero;stroke:none;stroke-width:1.25;stop-opacity:1"
           id="path4260"
           inkscape:connector-curvature="0" />
        <path
           d="m 230.85827,423.85463 h 4.40637 v 11.76767 c 0,1.86804 0.0537,3.07756 0.16295,3.63025 0.18814,0.88866 0.63836,1.6043 1.34727,2.14186 0.70892,0.53925 1.67822,0.80803 2.90958,0.80803 1.24984,0 2.19226,-0.25366 2.82726,-0.76267 0.635,-0.50901 1.01634,-1.13393 1.14569,-1.87476 0.12928,-0.74251 0.19487,-1.9722 0.19487,-3.69073 v -12.01965 h 4.40468 v 11.41153 c 0,2.60888 -0.11934,4.45172 -0.35782,5.52853 -0.23686,1.07682 -0.67699,1.98564 -1.31703,2.72647 -0.64004,0.74084 -1.49511,1.33216 -2.56688,1.77061 -1.07178,0.44013 -2.47113,0.6602 -4.19638,0.6602 -2.08475,0 -3.66385,-0.24023 -4.74066,-0.719 -1.07682,-0.47877 -1.92852,-1.10201 -2.55344,-1.86636 -0.62492,-0.76603 -1.0365,-1.56902 -1.23473,-2.40897 -0.28726,-1.2448 -0.43173,-3.0826 -0.43173,-5.51341 z"
           style="opacity:1;fill:#58585a;fill-opacity:1;fill-rule:nonzero;stroke:none;stroke-width:1.25;stop-opacity:1"
           id="path4264"
           inkscape:connector-curvature="0" />
        <path
           d="m 251.78405,438.51189 4.28709,-0.41493 c 0.25702,1.43295 0.78115,2.48456 1.56902,3.15652 0.78955,0.67196 1.85293,1.00794 3.19348,1.00794 1.41783,0 2.48793,-0.29903 3.20692,-0.89707 0.719,-0.59636 1.07849,-1.2952 1.07849,-2.09651 0,-0.51404 -0.15119,-0.95082 -0.45357,-1.31199 -0.30238,-0.3595 -0.83155,-0.67364 -1.58414,-0.94075 -0.51741,-0.17806 -1.69333,-0.49389 -3.52778,-0.94746 -2.36193,-0.58292 -4.01831,-1.30024 -4.97081,-2.15026 -1.34055,-1.19441 -2.00915,-2.65256 -2.00915,-4.37109 0,-1.10705 0.31414,-2.14186 0.9441,-3.10444 0.62996,-0.96426 1.53878,-1.6967 2.72479,-2.20067 1.18433,-0.50396 2.6156,-0.75595 4.29381,-0.75595 2.73823,0 4.79946,0.59804 6.18369,1.79245 1.38424,1.19608 2.10995,2.79198 2.18051,4.7877 l -4.40637,0.19151 c -0.18815,-1.11545 -0.593,-1.91844 -1.21288,-2.40729 -0.61988,-0.48885 -1.55054,-0.73412 -2.79031,-0.73412 -1.28008,0 -2.28297,0.26207 -3.00701,0.7862 -0.46533,0.33597 -0.69883,0.78451 -0.69883,1.34727 0,0.51405 0.21838,0.95418 0.65515,1.3204 0.55437,0.46365 1.90501,0.94746 4.04687,1.45143 2.14355,0.50397 3.72937,1.02641 4.75578,1.56398 1.02642,0.53925 1.83109,1.27336 2.41065,2.20738 0.58125,0.93402 0.87187,2.08811 0.87187,3.46058 0,1.24649 -0.34774,2.41233 -1.04322,3.49754 -0.69379,1.0869 -1.67653,1.89493 -2.94653,2.42409 -1.27,0.52749 -2.85246,0.79123 -4.74739,0.79123 -2.75838,0 -4.87673,-0.63332 -6.35504,-1.90332 -1.4783,-1.26832 -2.36193,-3.11956 -2.64919,-5.55037"
           style="opacity:1;fill:#58585a;fill-opacity:1;fill-rule:nonzero;stroke:none;stroke-width:1.25;stop-opacity:1"
           id="path4268"
           inkscape:connector-curvature="0" />
        <path
           d="m 281.81838,445.5814 v -21.54969 h 4.40636 v 17.8892 h 10.95291 v 3.66049 z"
           style="opacity:1;fill:#58585a;fill-opacity:1;fill-rule:nonzero;stroke:none;stroke-width:1;stop-opacity:1"
           id="path4272"
           inkscape:connector-curvature="0" />
        <path
           d="m 300.31839,445.5814 v -21.72608 h 16.17738 v 3.67561 h -11.7727 v 4.81626 h 10.95459 v 3.66049 h -10.95459 v 5.91323 h 12.191 v 3.66049 z"
           style="opacity:1;fill:#58585a;fill-opacity:1;fill-rule:nonzero;stroke:none;stroke-width:1;stop-opacity:1"
           id="path4276"
           inkscape:connector-curvature="0" />
        <path
           d="m 319.53235,438.51189 4.28709,-0.41493 c 0.25702,1.43295 0.78115,2.48456 1.56902,3.15652 0.78955,0.67196 1.85293,1.00794 3.19348,1.00794 1.41783,0 2.48793,-0.29903 3.20692,-0.89707 0.719,-0.59636 1.07849,-1.2952 1.07849,-2.09651 0,-0.51404 -0.15119,-0.95082 -0.45357,-1.31199 -0.30238,-0.3595 -0.83155,-0.67364 -1.58414,-0.94075 -0.51741,-0.17806 -1.69333,-0.49389 -3.52778,-0.94746 -2.36193,-0.58292 -4.01831,-1.30024 -4.97081,-2.15026 -1.34055,-1.19441 -2.00915,-2.65256 -2.00915,-4.37109 0,-1.10705 0.31414,-2.14186 0.9441,-3.10444 0.62996,-0.96426 1.53878,-1.6967 2.72479,-2.20067 1.18433,-0.50396 2.6156,-0.75595 4.29381,-0.75595 2.73823,0 4.79946,0.59804 6.18369,1.79245 1.38424,1.19608 2.10995,2.79198 2.18051,4.7877 l -4.40637,0.19151 c -0.18815,-1.11545 -0.593,-1.91844 -1.21288,-2.40729 -0.61988,-0.48885 -1.55054,-0.73412 -2.79031,-0.73412 -1.28008,0 -2.28297,0.26207 -3.00701,0.7862 -0.46533,0.33597 -0.69883,0.78451 -0.69883,1.34727 0,0.51405 0.21838,0.95418 0.65516,1.3204 0.55604,0.46365 1.905,0.94746 4.04854,1.45143 2.14187,0.50397 3.72769,1.02641 4.7541,1.56398 1.02642,0.53925 1.83109,1.27336 2.41065,2.20738 0.58125,0.93402 0.87187,2.08811 0.87187,3.46058 0,1.24649 -0.34774,2.41233 -1.04322,3.49754 -0.69379,1.0869 -1.67653,1.89493 -2.94653,2.42409 -1.27,0.52749 -2.85246,0.79123 -4.74738,0.79123 -2.75839,0 -4.87674,-0.63332 -6.35505,-1.90332 -1.4783,-1.26832 -2.36193,-3.11956 -2.64919,-5.55037"
           style="opacity:1;fill:#58585a;fill-opacity:1;fill-rule:nonzero;stroke:none;stroke-width:1.25;stop-opacity:1"
           id="path4288"
           inkscape:connector-curvature="0" />
        <path
           d="m 348.3313,438.51189 4.28709,-0.41493 c 0.25702,1.43295 0.78115,2.48456 1.56902,3.15652 0.78955,0.67196 1.85292,1.00794 3.19348,1.00794 1.41783,0 2.48792,-0.29903 3.20692,-0.89707 0.71899,-0.59636 1.07849,-1.2952 1.07849,-2.09651 0,-0.51404 -0.15119,-0.95082 -0.45357,-1.31199 -0.30238,-0.3595 -0.83155,-0.67364 -1.58414,-0.94075 -0.51741,-0.17806 -1.69334,-0.49389 -3.52778,-0.94746 -2.36193,-0.58292 -4.01831,-1.30024 -4.97081,-2.15026 -1.34056,-1.19441 -2.00915,-2.65256 -2.00915,-4.37109 0,-1.10705 0.31414,-2.14186 0.9441,-3.10444 0.62996,-0.96426 1.53878,-1.6967 2.72479,-2.20067 1.18432,-0.50396 2.61559,-0.75595 4.29381,-0.75595 2.73823,0 4.79946,0.59804 6.18369,1.79245 1.38423,1.19608 2.10995,2.79198 2.1805,4.7877 l -4.40636,0.19151 c -0.18815,-1.11545 -0.593,-1.91844 -1.21288,-2.40729 -0.61989,-0.48885 -1.55055,-0.73412 -2.79031,-0.73412 -1.28008,0 -2.28298,0.26207 -3.00701,0.7862 -0.46533,0.33597 -0.69884,0.78451 -0.69884,1.34727 0,0.51405 0.21839,0.95418 0.65516,1.3204 0.55437,0.46365 1.905,0.94746 4.04855,1.45143 2.14186,0.50397 3.72768,1.02641 4.7541,1.56398 1.02642,0.53925 1.83109,1.27336 2.41065,2.20738 0.58124,0.93402 0.87186,2.08811 0.87186,3.46058 0,1.24649 -0.34773,2.41233 -1.04321,3.49754 -0.6938,1.0869 -1.67654,1.89493 -2.94654,2.42409 -1.27,0.52749 -2.85246,0.79123 -4.74738,0.79123 -2.75839,0 -4.87673,-0.63332 -6.35504,-1.90332 -1.47831,-1.26832 -2.36193,-3.11956 -2.64919,-5.55037"
           style="opacity:1;fill:#58585a;fill-opacity:1;fill-rule:nonzero;stroke:none;stroke-width:1.25;stop-opacity:1"
           id="path4292"
           inkscape:connector-curvature="0" />
        <path
           d="m 369.77784,445.58138 v -21.72607 h 7.069 c 2.67943,0 4.42484,0.10751 5.23959,0.3259 1.24984,0.32589 2.29642,1.03481 3.13972,2.12674 0.84331,1.09193 1.26496,2.50137 1.26496,4.22998 0,1.33551 -0.2419,2.456 -0.72907,3.36483 -0.48549,0.90882 -1.10369,1.62277 -1.85293,2.14186 -0.74923,0.51909 -1.51022,0.86179 -2.28465,1.02978 -1.05162,0.2083 -2.5736,0.31078 -4.56932,0.31078 h -2.87094 v 8.1962 z m 4.40636,-18.05046 v 6.16521 h 2.41065 c 1.73533,0 2.89614,-0.11423 3.48242,-0.34102 0.58461,-0.22847 1.0449,-0.58292 1.37584,-1.06673 0.33262,-0.48381 0.49893,-1.04826 0.49893,-1.68998 0,-0.79123 -0.23351,-1.44303 -0.69884,-1.95707 -0.46701,-0.51237 -1.05665,-0.83491 -1.77229,-0.96258 -0.5258,-0.0992 -1.58246,-0.14783 -3.16996,-0.14783 z"
           style="opacity:1;fill:#58585a;fill-opacity:1;fill-rule:nonzero;stroke:none;stroke-width:1.25;stop-opacity:1"
           id="path4296"
           inkscape:connector-curvature="0" />
        <path
           d="m 389.21539,434.8519 c 0,-2.2141 0.33262,-4.07039 0.99786,-5.57221 0.49557,-1.10705 1.17257,-2.09987 2.03099,-2.97846 0.85843,-0.88026 1.79749,-1.53206 2.82055,-1.95707 1.35903,-0.57285 2.92637,-0.86011 4.70202,-0.86011 3.21532,0 5.78724,0.9945 7.71744,2.98013 1.9302,1.98564 2.89446,4.74738 2.89446,8.28356 0,3.50762 -0.95754,6.25257 -2.87262,8.23317 -1.91508,1.98059 -4.47356,2.97005 -7.6788,2.97005 -3.24556,0 -5.8242,-0.98442 -7.73928,-2.95661 -1.91508,-1.97052 -2.87262,-4.68523 -2.87262,-8.14245 m 4.53908,-0.14783 c 0,2.45936 0.57116,4.32405 1.71181,5.59405 1.14065,1.27 2.5904,1.905 4.34589,1.905 1.75549,0 3.19684,-0.62996 4.32405,-1.88989 1.12553,-1.25992 1.68829,-3.1498 1.68829,-5.66964 0,-2.4896 -0.54764,-4.34589 -1.64462,-5.57221 -1.09697,-1.22464 -2.55176,-1.83781 -4.36772,-1.83781 -1.81597,0 -3.27916,0.61989 -4.39125,1.85965 -1.11041,1.24144 -1.66645,3.11116 -1.66645,5.61085"
           style="opacity:1;fill:#58585a;fill-opacity:1;fill-rule:nonzero;stroke:none;stroke-width:1.25;stop-opacity:1"
           id="path4300"
           inkscape:connector-curvature="0" />
        <path
           d="m 413.83223,445.58138 v -21.72607 h 9.27134 c 2.3317,0 4.02671,0.19486 5.08336,0.5846 1.05666,0.39141 1.90164,1.08521 2.53665,2.08307 0.635,0.99786 0.9525,2.1385 0.9525,3.42194 0,1.63118 -0.48045,2.97846 -1.44303,4.04015 -0.96258,1.06169 -2.40057,1.73197 -4.31565,2.00748 0.9525,0.55268 1.73869,1.1608 2.35857,1.82268 0.61988,0.66188 1.45647,1.83781 2.50808,3.52778 l 2.66431,4.23837 h -5.26815 l -3.18508,-4.72722 c -1.13225,-1.68997 -1.905,-2.75335 -2.32161,-3.19348 -0.41829,-0.44013 -0.85843,-0.74251 -1.32544,-0.90546 -0.46701,-0.16127 -1.20616,-0.24359 -2.21746,-0.24359 h -0.8937 v 9.06975 z m 4.40469,-12.53705 h 3.26067 c 2.11331,0 3.43203,-0.0891 3.95784,-0.2671 0.5258,-0.17807 0.93738,-0.48381 1.2364,-0.91891 0.29734,-0.43509 0.44685,-0.97937 0.44685,-1.63117 0,-0.73076 -0.19655,-1.3204 -0.58964,-1.77061 -0.39142,-0.44853 -0.9441,-0.73412 -1.65806,-0.85171 -0.35782,-0.0504 -1.42959,-0.0739 -3.21532,-0.0739 h -3.43874 z"
           style="opacity:1;fill:#58585a;fill-opacity:1;fill-rule:nonzero;stroke:none;stroke-width:1.25;stop-opacity:1"
           id="path4304"
           inkscape:connector-curvature="0" />
        <path
           d="m 440.74163,445.5814 v -18.05047 h -6.47431 v -3.67561 h 17.33819 v 3.67561 h -6.45919 v 18.05047 z"
           style="opacity:1;fill:#58585a;fill-opacity:1;fill-rule:nonzero;stroke:none;stroke-width:1;stop-opacity:1"
           id="path4308"
           inkscape:connector-curvature="0" />
        <path
           d="m 453.33261,438.51189 4.28541,-0.41493 c 0.2587,1.43295 0.78283,2.48456 1.5707,3.15652 0.78955,0.67196 1.85292,1.00794 3.19348,1.00794 1.41783,0 2.48624,-0.29903 3.20692,-0.89707 0.71899,-0.59636 1.07849,-1.2952 1.07849,-2.09651 0,-0.51404 -0.15119,-0.95082 -0.45357,-1.31199 -0.30238,-0.3595 -0.83155,-0.67364 -1.58414,-0.94075 -0.51741,-0.17806 -1.69334,-0.49389 -3.52778,-0.94746 -2.36193,-0.58292 -4.01831,-1.30024 -4.97249,-2.15026 -1.33887,-1.19441 -2.00747,-2.65256 -2.00747,-4.37109 0,-1.10705 0.31414,-2.14186 0.9441,-3.10444 0.62996,-0.96426 1.53878,-1.6967 2.72311,-2.20067 1.186,-0.50396 2.61727,-0.75595 4.29381,-0.75595 2.73991,0 4.79946,0.59804 6.18369,1.79245 1.38423,1.19608 2.11163,2.79198 2.1805,4.7877 l -4.40468,0.19151 c -0.18815,-1.11545 -0.593,-1.91844 -1.21288,-2.40729 -0.61988,-0.48885 -1.55055,-0.73412 -2.79199,-0.73412 -1.2784,0 -2.2813,0.26207 -3.00533,0.7862 -0.46701,0.33597 -0.70052,0.78451 -0.70052,1.34727 0,0.51405 0.21839,0.95418 0.65516,1.3204 0.55605,0.46365 1.905,0.94746 4.04855,1.45143 2.14354,0.50397 3.72936,1.02641 4.75578,1.56398 1.02642,0.53925 1.83109,1.27336 2.41065,2.20738 0.57956,0.93402 0.87019,2.08811 0.87019,3.46058 0,1.24649 -0.34774,2.41233 -1.04154,3.49754 -0.6938,1.0869 -1.67653,1.89493 -2.94654,2.42409 -1.27,0.52749 -2.85246,0.79123 -4.74738,0.79123 -2.75838,0 -4.87673,-0.63332 -6.35504,-1.90332 -1.47831,-1.26832 -2.36193,-3.11956 -2.64919,-5.55037"
           style="opacity:1;fill:#58585a;fill-opacity:1;fill-rule:nonzero;stroke:none;stroke-width:1.25;stop-opacity:1"
           id="path4320"
           inkscape:connector-curvature="0" />
      </g>
      <g
         id="g1009">
        <path
           d="m 518.7284,445.5814 h -4.79274 l -1.90332,-4.93553 h -8.72202 l -1.80085,4.93553 h -4.67346 l 8.49859,-21.72608 h 4.65834 z m -8.11054,-8.59602 -3.00701,-8.06182 -2.94653,8.06182 z"
           style="opacity:1;fill:#04a1a0;fill-opacity:1;fill-rule:nonzero;stroke:none;stroke-width:1;stop-opacity:1"
           id="path4324"
           inkscape:connector-curvature="0" />
        <path
           d="m 521.03606,423.85463 h 4.40468 v 11.76767 c 0,1.86804 0.0554,3.07756 0.16463,3.63025 0.18815,0.88866 0.63668,1.6043 1.34728,2.14186 0.70892,0.53925 1.67821,0.80803 2.9079,0.80803 1.25152,0 2.19394,-0.25366 2.82894,-0.76267 0.635,-0.50901 1.01634,-1.13393 1.14569,-1.87476 0.12767,-0.74251 0.19319,-1.9722 0.19319,-3.69073 v -12.01965 h 4.40636 v 11.41153 c 0,2.60888 -0.11934,4.45172 -0.35782,5.52853 -0.23854,1.07682 -0.67699,1.98564 -1.31703,2.72647 -0.64004,0.74084 -1.49511,1.33216 -2.56688,1.77061 -1.07178,0.44013 -2.47113,0.6602 -4.19806,0.6602 -2.08307,0 -3.66385,-0.24023 -4.73898,-0.719 -1.07682,-0.47877 -1.92852,-1.10201 -2.55344,-1.86636 -0.62492,-0.76603 -1.0365,-1.56902 -1.23473,-2.40897 -0.28894,-1.2448 -0.43173,-3.0826 -0.43173,-5.51341 z"
           style="opacity:1;fill:#04a1a0;fill-opacity:1;fill-rule:nonzero;stroke:none;stroke-width:1.25;stop-opacity:1"
           id="path4336"
           inkscape:connector-curvature="0" />
        <path
           d="m 547.98896,445.5814 v -18.05047 h -6.47431 v -3.67561 h 17.33987 v 3.67561 h -6.45919 v 18.05047 z"
           style="opacity:1;fill:#04a1a0;fill-opacity:1;fill-rule:nonzero;stroke:none;stroke-width:1;stop-opacity:1"
           id="path4340"
           inkscape:connector-curvature="0" />
        <path
           d="m 561.7122,445.58138 v -21.72607 h 9.27134 c 2.33169,0 4.02503,0.19486 5.08336,0.5846 1.05665,0.39141 1.90164,1.08521 2.53832,2.08307 0.635,0.99786 0.9525,2.1385 0.9525,3.42194 0,1.63118 -0.48213,2.97846 -1.44471,4.04015 -0.96258,1.06169 -2.40225,1.73197 -4.31565,2.00748 0.9525,0.55268 1.73869,1.1608 2.35857,1.82268 0.61989,0.66188 1.45647,1.83781 2.50641,3.52778 l 2.66599,4.23837 h -5.26983 l -3.18508,-4.72722 c -1.13057,-1.68997 -1.905,-2.75335 -2.31993,-3.19348 -0.4183,-0.44013 -0.86011,-0.74251 -1.32712,-0.90546 -0.46533,-0.16127 -1.20449,-0.24359 -2.21578,-0.24359 h -0.89371 v 9.06975 z m 4.40468,-12.53705 h 3.259 c 2.11331,0 3.4337,-0.0891 3.95951,-0.2671 0.52581,-0.17807 0.93738,-0.48381 1.23472,-0.91891 0.29902,-0.43509 0.44854,-0.97937 0.44854,-1.63117 0,-0.73076 -0.19823,-1.3204 -0.58965,-1.77061 -0.39141,-0.44853 -0.9441,-0.73412 -1.65973,-0.85171 -0.35614,-0.0504 -1.42791,-0.0739 -3.21364,-0.0739 h -3.43875 z"
           style="opacity:1;fill:#04a1a0;fill-opacity:1;fill-rule:nonzero;stroke:none;stroke-width:1.25;stop-opacity:1"
           id="path4352"
           inkscape:connector-curvature="0" />
        <path
           d="m 583.7089,445.5814 v -21.72608 h 16.17907 v 3.67561 h -11.7727 v 4.81626 h 10.95291 v 3.66049 h -10.95291 v 5.91323 h 12.18763 v 3.66049 z"
           style="opacity:1;fill:#04a1a0;fill-opacity:1;fill-rule:nonzero;stroke:none;stroke-width:1;stop-opacity:1"
           id="path4356"
           inkscape:connector-curvature="0" />
        <path
           d="m 603.97986,445.5814 v -21.72608 h 6.59358 l 3.95951,14.82003 3.91416,-14.82003 h 6.60703 v 21.72608 h -4.09223 v -17.10301 l -4.33077,17.10301 h -4.24173 l -4.31565,-17.10301 v 17.10301 z"
           style="opacity:1;fill:#04a1a0;fill-opacity:1;fill-rule:nonzero;stroke:none;stroke-width:1;stop-opacity:1"
           id="path4360"
           inkscape:connector-curvature="0" />
        <path
           d="m 629.42943,445.5814 v -21.72608 h 16.17906 v 3.67561 h -11.7727 v 4.81626 h 10.95292 v 3.66049 h -10.95292 v 5.91323 h 12.18932 v 3.66049 z"
           style="opacity:1;fill:#04a1a0;fill-opacity:1;fill-rule:nonzero;stroke:none;stroke-width:1;stop-opacity:1"
           id="path4364"
           inkscape:connector-curvature="0" />
        <path
           d="m 649.8047,445.5814 v -21.72608 h 4.28709 l 8.93032,14.50925 v -14.50925 h 4.09222 v 21.72608 h -4.4198 l -8.79593,-14.16823 v 14.16823 z"
           style="opacity:1;fill:#04a1a0;fill-opacity:1;fill-rule:nonzero;stroke:none;stroke-width:1;stop-opacity:1"
           id="path4368"
           inkscape:connector-curvature="0" />
        <path
           d="m 676.6842,445.5814 v -18.05047 h -6.47432 v -3.67561 h 17.3382 v 3.67561 h -6.4592 v 18.05047 z"
           style="opacity:1;fill:#04a1a0;fill-opacity:1;fill-rule:nonzero;stroke:none;stroke-width:1;stop-opacity:1"
           id="path4372"
           inkscape:connector-curvature="0" />
      </g>
    </g>
  </g>
</svg>
