<svg id="black_logo" xmlns="http://www.w3.org/2000/svg" viewBox="0 0 210 50">
    <defs>
        <style>.cls-1{fill:#0b1014;}.cls-2{fill:#706f6b;}</style>
    </defs>
    <title>black_logo</title>
    <g id="PALO_IT">
        <g id="O">
            <path class="cls-2"
                  d="M146,7.85A17.15,17.15,0,1,1,128.88,25,17.17,17.17,0,0,1,146,7.85M146,.5A24.5,24.5,0,1,0,170.53,25,24.5,24.5,0,0,0,146,.5Z"/>
        </g>
        <g id="L">
            <path class="cls-2"
                  d="M117,42.15h-21v-38a3.68,3.68,0,0,0-7.35,0V46a3.54,3.54,0,0,0,3.54,3.54H117A3.54,3.54,0,0,0,120.56,46v-.27A3.54,3.54,0,0,0,117,42.15Z"/>
        </g>
        <g id="A">
            <path class="cls-2"
                  d="M78.49,48.93l.05,0a3.65,3.65,0,0,0,1.55-4h0v0c0-.1-.06-.2-.1-.31l0-.12-.06-.14L60.6,3A3.69,3.69,0,0,0,60,1.89l-.06-.07-.07-.08,0,0-.06-.07-.1-.1-.11-.11,0,0h0l-.11-.09-.17-.13-.13-.09L58.94,1,58.78.9,58.67.85h0l0,0L58.45.76,58.26.69l-.08,0a3.64,3.64,0,0,0-2.43.1h0l-.31.14,0,0-.27.16,0,0-.24.18,0,0-.15.13-.08.08,0,0-.12.12h0a3.65,3.65,0,0,0-.71,1.13L34.56,43.93a3.68,3.68,0,0,0,.38,4.31l.07.08.14.14.13.13.11.09.18.14,0,0,.09.05.19.12.15.08.12.07h0l0,0,.15.06.22.08.06,0a3.65,3.65,0,0,0,4.07-1.4h0v0l.17-.27.06-.11.07-.14L57.11,12.85,73.06,47a3.68,3.68,0,0,0,3.54,2.48h.1l.2,0,.18,0,.14,0,.23,0h0l.1,0,.22-.07L78,49.2l.13-.05h0l0,0,.14-.07Z"/>
        </g>
        <path id="P" class="cls-2"
              d="M17.78.5H4.31a3.68,3.68,0,0,0-.57,7.31,3.61,3.61,0,0,0,.57,0H17.78a9.8,9.8,0,0,1,0,19.6H4.31a3.61,3.61,0,0,0-.57,0A3.68,3.68,0,0,0,.63,31.13v14.7a3.68,3.68,0,0,0,7.35,0v-11h9.8a17.15,17.15,0,0,0,0-34.3Z"/>
        <g id="IT">
            <path id="I" class="cls-2"
                  d="M181.86.5h-.35a1.84,1.84,0,0,0-1.66,2V23a1.84,1.84,0,0,0,1.66,2h.35a1.84,1.84,0,0,0,1.66-2V2.47A1.84,1.84,0,0,0,181.86.5Z"/>
            <path id="T" class="cls-2"
                  d="M207.4.5H191.74a1.84,1.84,0,0,0-2,1.66v.35a1.84,1.84,0,0,0,2,1.66h5.74V23a1.84,1.84,0,0,0,1.66,2h.35a1.84,1.84,0,0,0,1.66-2V4.18h6.23a1.84,1.84,0,0,0,2-1.66V2.16A1.84,1.84,0,0,0,207.4.5Z"/>
        </g>
    </g>
</svg>
