<svg xmlns:dc="http://purl.org/dc/elements/1.1/" xmlns:cc="http://creativecommons.org/ns#" xmlns:rdf="http://www.w3.org/1999/02/22-rdf-syntax-ns#" xmlns:svg="http://www.w3.org/2000/svg" xmlns="http://www.w3.org/2000/svg" height="308.4972005129596" width="1224.7094926825475" version="1.0"><rect id="backgroundrect" width="100%" height="100%" x="0" y="0" fill="none" stroke="none" class="" style=""/>
  <metadata id="metadata29">
    <rdf:RDF>
      <cc:Work rdf:about="">
        <dc:format>image/svg+xml</dc:format>
        <dc:type rdf:resource="http://purl.org/dc/dcmitype/StillImage"/>
      </cc:Work>
    </rdf:RDF>
  </metadata>
  <defs id="defs3">
    <pattern y="0" x="0" height="6" width="6" patternUnits="userSpaceOnUse" id="EMFhbasepattern"/>
  </defs>
  
  
  
  
  
  
  
  
<g class="currentLayer" style=""><title>Layer 1</title><path id="path5" d="M280.9520768139648,260.77114147460935 L280.9520768139648,249.03877147460935 L291.76347681396487,249.03877147460935 C299.23135681396485,249.03877147460935 304.3367368139648,247.09672147460935 307.1196768139648,243.2126314746094 C309.34201681396485,239.70893147460936 310.4631968139648,232.4212514746094 310.4631968139648,221.34957147460938 L310.4631968139648,88.56955147460937 C310.4631968139648,76.45678147460939 309.30197681396487,69.10903147460937 306.99954681396486,66.54633147460939 C303.65601681396487,62.78236147460939 298.57065681396483,60.900371474609386 291.76347681396487,60.900371474609386 L280.9520768139648,60.900371474609386 L280.9520768139648,49.16800147460938 L367.6234768139648,49.16800147460938 C398.71626681396486,49.16800147460938 422.4412868139649,52.731761474609385 438.8385768139649,59.899321474609366 C455.53618681396483,67.14696147460938 468.3096568139648,78.67912147460939 477.1389668139649,94.45576147460937 C488.45089681396485,112.17444147460938 494.11686681396486,131.99535147460938 494.11686681396486,153.8984414746094 C494.11686681396486,169.3547414746094 491.57418681396484,183.66984147460937 486.50884681396485,196.8437314746094 C481.44350681396486,210.01762147460937 473.93558681396485,221.3295514746094 463.9850968139648,230.75950147460935 C454.03459681396487,240.1894414746094 441.68157681396485,247.5572114746094 426.9059868139649,252.84278147460935 C412.1504268139648,258.1283614746094 395.11246681396483,260.77114147460935 375.79208681396483,260.77114147460935 zM345.82048681396486,240.36963147460938 C356.4316768139648,242.7521414746094 366.1018668139648,243.93339147460938 374.83107681396484,243.93339147460938 C386.04289681396483,243.93339147460938 396.39381681396486,241.89123147460936 405.90384681396483,237.78691147460938 C415.39384681396484,233.68258147460938 423.6425468139648,227.83641147460935 430.6299168139649,220.20837147460935 C437.6172868139648,212.58033147460935 443.1230968139648,203.27051147460935 447.1473368139649,192.29894147460936 C451.17157681396486,181.3073514746094 453.1736868139649,169.01438147460937 453.1736868139649,155.42005147460935 C453.1736868139649,141.74563147460935 451.1915968139648,129.41262147460938 447.22741681396485,118.46107147460938 C443.2632368139648,107.48950147460937 437.7774568139648,98.19971147460939 430.7500468139649,90.59168147460937 C423.72263681396487,82.98366147460936 415.3137668139649,77.13750147460937 405.54346681396487,73.05319147460938 C395.7731568139648,68.96888147460936 385.1219268139648,66.92673147460937 373.60978681396483,66.92673147460937 C369.38533681396484,66.92673147460937 364.74043681396483,67.28711147460936 359.67509681396484,68.02789147460936 C354.62977681396484,68.78869147460938 350.0048968139648,69.64960147460937 345.82048681396486,70.67068147460938 z" style="fill:#3959aa;fill-rule:nonzero;fill-opacity:1;stroke:none;" class=""/><path id="path7" d="M64.32363681396484,153.71825147460936 C64.32363681396484,104.14598147460939 103.62507681396485,63.943581474609374 152.09619681396484,63.943581474609374 C200.58732681396486,63.943581474609374 239.86875681396486,104.14598147460939 239.86875681396486,153.71825147460936 C239.86875681396486,203.31055147460938 200.58732681396486,243.49292147460937 152.09619681396484,243.49292147460937 C103.62507681396485,243.49292147460937 64.32363681396484,203.31055147460938 64.32363681396484,153.71825147460936 " style="fill:none;stroke:#004f04;stroke-width:40.042225px;stroke-linecap:butt;stroke-linejoin:miter;stroke-miterlimit:8;stroke-dasharray:none;stroke-opacity:1;" class=""/><text id="text13" y="-126.25698852539062" x="-97.20670318603516" transform="matrix(1,0,0,1,602.401033,384.663296) " style="font-size:200.187500px;font-style:normal;font-variant:normal;font-weight:700;font-stretch:Normal;line-height:125.000000%;letter-spacing:0px;word-spacing:0px;fill:#000000;fill-opacity:1;stroke:none;font-family:Martel Heavy;text-align:start;text-anchor:start;" xml:space="preserve" class=""><tspan id="tspan11" y="-126.25698852539062" x="-97.20670318603516"><tspan id="tspan9" style="fill:#004F04;font-size:200.187500px;font-style:normal;font-variant:normal;font-weight:700;font-stretch:Normal;font-family:Martel Heavy;" dy="0.000000" dx="0.000000">ossard</tspan></tspan></text><path id="path15" d="M138.88225681396483,153.55808147460937 L372.50862681396484,153.55808147460937 " style="fill:none;stroke:#bfbfbf;stroke-width:13.294019px;stroke-linecap:butt;stroke-linejoin:miter;stroke-miterlimit:8;stroke-dasharray:none;stroke-opacity:1;" class=""/><path id="path17" d="M122.94545681396485,153.23775147460935 C122.94545681396485,137.4511014746094 136.21945681396485,124.64760147460939 152.57669681396484,124.64760147460939 C168.94395681396486,124.64760147460939 182.20794681396484,137.4511014746094 182.20794681396484,153.23775147460935 C182.20794681396484,169.03440147460935 168.94395681396486,181.82790147460935 152.57669681396484,181.82790147460935 C136.21945681396485,181.82790147460935 122.94545681396485,169.03440147460935 122.94545681396485,153.23775147460935 z" style="fill:#385723;fill-rule:evenodd;fill-opacity:1;stroke:none;" class=""/><path id="path19" d="M122.94545681396485,153.23775147460935 C122.94545681396485,137.4511014746094 136.21945681396485,124.64760147460939 152.57669681396484,124.64760147460939 C168.94395681396486,124.64760147460939 182.20794681396484,137.4511014746094 182.20794681396484,153.23775147460935 C182.20794681396484,169.03440147460935 168.94395681396486,181.82790147460935 152.57669681396484,181.82790147460935 C136.21945681396485,181.82790147460935 122.94545681396485,169.03440147460935 122.94545681396485,153.23775147460935 " style="fill:none;stroke:#bfbfbf;stroke-width:1.2813512px;stroke-linecap:butt;stroke-linejoin:miter;stroke-miterlimit:8;stroke-dasharray:none;stroke-opacity:1;" class=""/><path id="path21" d="M366.56235681396487,152.43690147460939 C366.56235681396487,136.6602614746094 379.83635681396487,123.84675147460936 396.19360681396483,123.84675147460936 C412.57087681396484,123.84675147460936 425.8248468139649,136.6602614746094 425.8248468139649,152.43690147460939 C425.8248468139649,168.23356147460936 412.57087681396484,181.02705147460938 396.19360681396483,181.02705147460938 C379.83635681396487,181.02705147460938 366.56235681396487,168.23356147460936 366.56235681396487,152.43690147460939 z" style="fill:#7f7f7f;fill-rule:evenodd;fill-opacity:1;stroke:none;" class=""/><path id="path23" d="M366.56235681396487,152.43690147460939 C366.56235681396487,136.6602614746094 379.83635681396487,123.84675147460936 396.19360681396483,123.84675147460936 C412.57087681396484,123.84675147460936 425.8248468139649,136.6602614746094 425.8248468139649,152.43690147460939 C425.8248468139649,168.23356147460936 412.57087681396484,181.02705147460938 396.19360681396483,181.02705147460938 C379.83635681396487,181.02705147460938 366.56235681396487,168.23356147460936 366.56235681396487,152.43690147460939 " style="fill:none;stroke:#bfbfbf;stroke-width:1.2813512px;stroke-linecap:butt;stroke-linejoin:miter;stroke-miterlimit:8;stroke-dasharray:none;stroke-opacity:1;" class=""/></g></svg>