<?xml version="1.0" encoding="UTF-8"?>
<svg id="Calque_1" xmlns="http://www.w3.org/2000/svg" xmlns:xlink="http://www.w3.org/1999/xlink" version="1.1" viewBox="0 0 548.4 218.6">
  <!-- Generator: Adobe Illustrator 29.5.1, SVG Export Plug-In . SVG Version: 2.1.0 Build 141)  -->
  <defs>
    <style>
      .st0 {
        fill: url(#Dégradé_sans_nom_2);
      }

      .st1 {
        fill: #312783;
      }

      .st2 {
        fill: #fff;
      }

      .st3 {
        fill: url(#Dégradé_sans_nom);
      }

      .st4 {
        fill: #d31121;
      }

      .st5 {
        fill: #273577;
      }
    </style>
    <linearGradient id="Dégradé_sans_nom" data-name="Dégradé sans nom" x1="175.4" y1="195.1" x2="38" y2="22.6" gradientTransform="translate(0 219.4) scale(1 -1)" gradientUnits="userSpaceOnUse">
      <stop offset="0" stop-color="#273577"/>
      <stop offset="1" stop-color="#299ad2"/>
    </linearGradient>
    <linearGradient id="Dégradé_sans_nom_2" data-name="Dégradé sans nom 2" x1="37" y1="114" x2="221.7" y2="114" gradientTransform="translate(0 219.4) scale(1 -1)" gradientUnits="userSpaceOnUse">
      <stop offset="0" stop-color="#e1081b"/>
      <stop offset="1" stop-color="#b3191c"/>
    </linearGradient>
  </defs>
  <path class="st2" d="M221.8,111.8c0,57.5-57.3,106.8-110.2,106.8S2.4,170.8,2.4,111.8,51.5,5,112.1,5s109.7,48.5,109.7,106.8h0Z"/>
  <path class="st3" d="M43.3,171.9C9.7,128.2,17.9,65.5,61.6,31.9,104.1-.8,164.4,6,198.7,46.5c-.9-1.3-1.8-2.5-2.8-3.8C159.1-5.1,90.6-14.1,42.7,22.7-5.1,59.5-14.1,128,22.7,175.9c36.8,47.8,105.3,56.8,153.2,20,1.2-1,2.4-2,3.6-3-43.5,30.3-103.6,21.4-136.2-21h0Z"/>
  <path class="st4" d="M122.9,80.4s6.5-.8,6.5-9.6h-30v49h.2c0-.2.2-.4.2-.5,1-1.8,1.9-3.4,2.6-4.6.7-1.2,1.2-2.1,1.6-2.7.4-.6.6-1,.7-1.1,1.1-1.4,2.8-2.4,4.9-2.8v-9.4h16.5v-9.6h-16.5v-8.7h13.3Z"/>
  <path class="st4" d="M145.2,80.4v8.7h16.5v9.6h-16.5v10.7s.4,5.6-3.6,7.5l-6.6,2.9v-49h30c0,8.8-6.5,9.6-6.5,9.6h-13.3Z"/>
  <g>
    <path class="st5" d="M46.1,148.8c-2.8-6.8-5.7-13.6-8.6-20.4h6.3c.7,0,1.4,0,2.1.3.7.2,1.3.5,1.9.9.6.4,1.1.8,1.6,1.3s.8,1.1,1,1.7c1.3,3.2,2.7,6.4,4,9.6,1.3,3.2,2.7,6.4,4.1,9.6.4.9.7,1.7,1,2.6.3.9.6,2,.8,3.2v-.7c0-.3,0-.7.2-1.1.1-.5.3-1,.5-1.7s.6-1.5,1-2.5c1.4-3.2,2.8-6.4,4.1-9.6,1.3-3.2,2.7-6.4,4-9.6.5-1.3,1.4-2.3,2.6-3.1,1.2-.8,2.5-1.1,3.9-1.1h6.3l-17.2,40.9h-11c-2.9-6.8-5.8-13.6-8.6-20.4h0Z"/>
    <path class="st5" d="M125.6,145.6c0,1.1-.2,2-.6,2.8s-.9,1.4-1.6,2c-.6.5-1.4.9-2.1,1.2-.8.3-1.5.4-2.2.4h-24.3c.1.8.4,1.7,1,2.6.5,1,1.2,1.9,2.1,2.8s1.9,1.6,3.1,2.2c1.2.6,2.6.9,4.1.9s1.9-.1,2.8-.4c.9-.2,1.8-.6,2.6-1,.6-.3,1.2-.6,1.8-.7.6-.1,1.2-.2,1.9-.2,1,0,1.9.2,2.7.5.8.4,1.5.9,2.2,1.6l2.3,2.4c-2.2,2.4-4.7,4.2-7.5,5.4-2.8,1.3-5.7,1.9-8.8,1.9s-5.6-.5-8.2-1.7c-2.6-1.1-4.8-2.6-6.7-4.5s-3.4-4.1-4.5-6.7-1.7-5.3-1.7-8.1.5-5.6,1.7-8.1c1.1-2.6,2.6-4.8,4.5-6.7s4.1-3.4,6.7-4.5c2.6-1.1,5.3-1.7,8.2-1.7s4.7.4,6.9,1.2,4.2,1.9,6,3.3c1.8,1.4,3.3,3.1,4.6,5s2.2,4,2.8,6.2c.1.4.2.7.2,1.1v1-.2ZM114.9,143.2c-.3-.6-.7-1.3-1.2-2s-1.2-1.3-2-1.9c-.8-.6-1.8-1.1-2.8-1.5-1.1-.4-2.3-.6-3.6-.6s-2.8.2-4,.7-2.2,1-3.1,1.7c-.9.7-1.6,1.4-2.1,2.2s-.9,1.6-1.1,2.3c.1-.1.4-.3.7-.6s.8-.4,1.4-.4h17.8ZM111.8,121.9c-1.1,1.5-2.9,2.2-5.5,2.2h-5.1c1-1.8,1.9-3.4,2.6-4.7.7-1.3,1.3-2.3,1.8-3.2.5-.8.8-1.5,1.1-1.9s.4-.7.5-.8c1.1-1.4,2.9-2.1,5.5-2.1h7.1l-8,10.5h0Z"/>
    <path class="st5" d="M145.2,115.6v53.6h-10.2v-45.9l6.8-3s3.5-1.5,3.5-4.7h-.1Z"/>
    <path class="st5" d="M154.3,148.8c0-2.9.5-5.6,1.7-8.1s2.6-4.8,4.5-6.7,4.1-3.4,6.7-4.5,5.3-1.7,8.1-1.7,5.6.6,8.1,1.7c2.6,1.1,4.8,2.6,6.7,4.5,1.9,1.9,3.4,4.1,4.5,6.7,1.1,2.6,1.7,5.3,1.7,8.1s-.6,5.6-1.7,8.1c-1.1,2.6-2.6,4.8-4.5,6.7s-4.1,3.4-6.7,4.5-5.3,1.7-8.1,1.7-5.6-.5-8.1-1.7c-2.6-1.1-4.8-2.6-6.7-4.5-1.9-1.9-3.4-4.1-4.5-6.7s-1.7-5.3-1.7-8.1h0ZM164.4,148.9c0,1.5.3,2.9.9,4.2s1.3,2.5,2.3,3.4c1,1,2.1,1.7,3.5,2.3,1.3.6,2.7.9,4.2.9s2.9-.3,4.2-.9c1.3-.6,2.5-1.3,3.5-2.3s1.8-2.1,2.3-3.4c.6-1.3.9-2.7.9-4.2s-.3-2.9-.9-4.2-1.3-2.5-2.3-3.4c-1-1-2.1-1.8-3.5-2.3-1.3-.6-2.7-.9-4.2-.9s-2.9.3-4.2.9c-1.3.6-2.5,1.3-3.5,2.3s-1.8,2.1-2.3,3.4c-.6,1.3-.9,2.7-.9,4.2Z"/>
  </g>
  <path class="st0" d="M201.7,56.9c-31.6-39.3-89.1-45.6-128.4-14-25.2,20.3-39,51.1-35.8,81h5.2c.7,0,1.3,0,2,.2.4.1.7.2,1.1.4.2-24.2,10.8-48.1,31.1-64.5,35.9-28.9,88.5-23.2,117.3,12.8,28.1,34.9,23.8,86-9.4,115.4,1-.8,2.1-1.6,3.1-2.4,39.3-31.6,45.2-89.6,13.6-128.9h.2Z"/>
  <g id="Calque_3">
    <g>
      <path class="st1" d="M247,85.2h-6.3v6.8h6.2v1.1h-6.2v9.7h-1.2v-18.7h7.6v1.1h-.1Z"/>
      <path class="st1" d="M261.4,85.2h-7.7v6.8h7.6v1.1h-7.6v8.5h7.7v1.1h-9v-18.7h9v1.1h0ZM260.2,78.5l-3.8,3.5-.9-.5,3.2-3.7,1.4.7h0Z"/>
      <path class="st1" d="M267.2,102.7v-18.7h3.7c1.7,0,4.5.3,6.9,2.6,2,2,2.7,4.7,2.7,6.7s-.7,4.7-2.7,6.7-5.2,2.6-6.9,2.6h-3.7ZM268.4,101.6h2.4c4.9,0,8.3-3.4,8.3-8.2s-3.4-8.2-8.3-8.2h-2.4v16.4Z"/>
      <path class="st1" d="M295.1,85.2h-7.7v6.8h7.6v1.1h-7.6v8.5h7.7v1.1h-9v-18.7h9v1.1h0ZM293.9,78.5l-3.8,3.5-.9-.5,3.2-3.7,1.4.7h0Z"/>
      <path class="st1" d="M308.7,102.7l-6-8.8h-.6v8.8h-1.2v-18.7h2.7c1.4,0,2.7,0,3.9,1,1.5,1,1.9,2.5,1.9,4s-.8,3.8-3.1,4.5c-1,.3-1.9.4-2.3.4l6.1,8.8h-1.4ZM302,92.8h1.8c2.7,0,4.3-1.4,4.3-3.8s-.9-2.9-1.7-3.2c-.8-.4-2.1-.6-2.9-.6h-1.5v7.6h0Z"/>
      <path class="st1" d="M324.4,96.6h-8l-2.5,6.1h-1.3l7.9-19.2,7.8,19.2h-1.3l-2.5-6.1h-.1ZM323.9,95.5l-3.5-8.8-3.6,8.8h7.1Z"/>
      <path class="st1" d="M335.3,85.2v17.6h-1.2v-17.6h-4.8v-1.1h10.9v1.1h-4.9Z"/>
      <path class="st1" d="M346,84.1v18.7h-1.2v-18.7h1.2Z"/>
      <path class="st1" d="M371.1,93.4c0,5.4-4.2,9.6-9.7,9.6s-9.7-4.2-9.7-9.6,4.2-9.6,9.7-9.6,9.7,4.3,9.7,9.6ZM369.8,93.4c0-4.8-3.6-8.5-8.4-8.5s-8.4,3.7-8.4,8.5,3.6,8.5,8.4,8.5,8.4-3.7,8.4-8.5Z"/>
      <path class="st1" d="M376.8,102.7v-18.9l15.7,16.4v-16.2h1.2v19.2l-15.7-16.4v15.9h-1.2Z"/>
      <path class="st1" d="M416.2,85.2h-6.3v6.8h6.2v1.1h-6.2v9.7h-1.2v-18.7h7.6v1.1h0Z"/>
      <path class="st1" d="M429.5,102.7l-6-8.8h-.6v8.8h-1.2v-18.7h2.7c1.4,0,2.7,0,3.9,1,1.5,1,1.9,2.5,1.9,4s-.8,3.8-3.1,4.5c-1,.3-1.9.4-2.3.4l6.1,8.8h-1.4ZM422.9,92.8h1.8c2.7,0,4.3-1.4,4.3-3.8s-.9-2.9-1.7-3.2c-.8-.4-2.1-.6-2.9-.6h-1.5v7.6h0Z"/>
      <path class="st1" d="M445.2,96.6h-8l-2.5,6.1h-1.3l7.9-19.2,7.8,19.2h-1.3l-2.5-6.1h-.1ZM444.8,95.5l-3.5-8.8-3.6,8.8h7.1Z"/>
      <path class="st1" d="M453.7,102.7v-18.9l15.7,16.4v-16.2h1.2v19.2l-15.7-16.4v15.9h-1.2Z"/>
      <path class="st1" d="M492.2,87.9c-1.6-1.9-3.9-2.9-6.3-2.9-4.8,0-8.4,3.8-8.4,8.6s4.6,8.4,8.4,8.4,4.4-.8,6.3-2.8v1.6c-1.9,1.7-4.2,2.3-6.2,2.3-5.6,0-9.7-4.4-9.7-9.6s4.3-9.6,9.7-9.6,5.7,1.9,6.3,2.4v1.6h0ZM487,104.9l-3,3.5-.8-.5,2.6-3.8,1.3.7h0Z"/>
      <path class="st1" d="M507,96.6h-8l-2.5,6.1h-1.3l7.9-19.2,7.8,19.2h-1.3l-2.5-6.1h-.1ZM506.6,95.5l-3.5-8.8-3.6,8.8h7.1Z"/>
      <path class="st1" d="M516.7,84.1v18.7h-1.2v-18.7h1.2Z"/>
      <path class="st1" d="M531.9,87.2c-1.1-2.2-3.2-2.3-3.7-2.3-2.2,0-3.5,1.6-3.5,3.5s1.4,2.7,3.3,3.6c1.8.9,2.8,1.3,3.7,2,.8.6,2,1.5,2,3.6,0,3.1-2.6,5.5-5.8,5.5s-3.6-1.1-4.3-2c-.7-.8-1-1.6-1.2-2l1.1-.5c.3.7.7,1.5,1,1.8.8,1.1,2.2,1.6,3.5,1.6,2.5,0,4.5-1.8,4.5-4.3s-.4-2.1-1.8-2.9c-.5-.3-1.6-.9-3.2-1.6-1.8-.9-2.8-1.4-3.4-2.5-.4-.7-.6-1.4-.6-2.1,0-2.2,1.5-4.6,4.8-4.6s3.6.9,4.5,2.7l-.9.8v-.3Z"/>
      <path class="st1" d="M548.4,85.2h-7.7v6.8h7.6v1.1h-7.6v8.5h7.7v1.1h-9v-18.7h9v1.1h0Z"/>
      <path class="st1" d="M239.4,136.3v-18.7h3.7c1.7,0,4.5.3,6.9,2.6s2.7,4.7,2.7,6.7-.7,4.7-2.7,6.7-5.2,2.6-6.9,2.6h-3.7ZM240.7,135.2h2.4c4.9,0,8.3-3.4,8.3-8.2s-3.4-8.2-8.3-8.2h-2.4v16.4Z"/>
      <path class="st1" d="M267.4,118.8h-7.7v6.8h7.6v1.1h-7.6v8.5h7.7v1.1h-9v-18.7h9v1.1h0Z"/>
      <path class="st1" d="M296.3,121.5c-1.6-1.9-3.9-2.9-6.3-2.9-4.8,0-8.4,3.8-8.4,8.6s4.6,8.4,8.4,8.4,4.4-.8,6.3-2.8v1.6c-1.9,1.7-4.2,2.3-6.2,2.3-5.6,0-9.7-4.4-9.7-9.6s4.3-9.6,9.7-9.6,5.7,1.9,6.3,2.4v1.6h0Z"/>
      <path class="st1" d="M305.4,128.4l-6.1-10.7h1.4l5.4,9.4,5.5-9.4h1.4l-6.3,10.7v8h-1.2v-8h0Z"/>
      <path class="st1" d="M331.9,121.5c-1.6-1.9-3.9-2.9-6.3-2.9-4.8,0-8.4,3.8-8.4,8.6s4.6,8.4,8.4,8.4,4.4-.8,6.3-2.8v1.6c-1.9,1.7-4.2,2.3-6.2,2.3-5.6,0-9.7-4.4-9.7-9.6s4.3-9.6,9.7-9.6,5.7,1.9,6.3,2.4v1.6h0Z"/>
      <path class="st1" d="M338.8,117.7v17.6h5.2v1.1h-6.4v-18.7h1.2,0Z"/>
      <path class="st1" d="M366.1,127c0,5.4-4.2,9.6-9.7,9.6s-9.7-4.2-9.7-9.6,4.2-9.6,9.7-9.6,9.7,4.3,9.7,9.6ZM364.8,127c0-4.8-3.6-8.5-8.4-8.5s-8.4,3.7-8.4,8.5,3.6,8.5,8.4,8.5,8.4-3.7,8.4-8.5Z"/>
      <path class="st1" d="M374.9,118.8v17.6h-1.2v-17.6h-4.8v-1.1h10.9v1.1h-4.9Z"/>
      <path class="st1" d="M401.8,127c0,5.4-4.2,9.6-9.7,9.6s-9.7-4.2-9.7-9.6,4.2-9.6,9.7-9.6,9.7,4.3,9.7,9.6ZM400.6,127c0-4.8-3.6-8.5-8.4-8.5s-8.4,3.7-8.4,8.5,3.6,8.5,8.4,8.5,8.4-3.7,8.4-8.5Z"/>
      <path class="st1" d="M408.8,117.7v11.7c0,1.8,0,2.9.8,4,1.1,1.8,3.1,2.2,4.3,2.2s3.2-.4,4.3-2.2c.7-1.1.8-2.3.8-4v-11.7h1.2v11.7c0,2,0,3.4-1.1,4.8-1.4,2-3.6,2.5-5.3,2.5s-3.9-.5-5.3-2.5c-1-1.4-1.1-2.7-1.1-4.8v-11.7h1.4Z"/>
      <path class="st1" d="M434.8,136.3l-6-8.8h-.6v8.8h-1.2v-18.7h2.7c1.4,0,2.7.1,3.9,1,1.5,1,1.9,2.5,1.9,4s-.8,3.8-3.1,4.5c-1,.3-1.9.4-2.3.4l6.1,8.8h-1.4ZM428.2,126.4h1.8c2.7,0,4.3-1.4,4.3-3.8s-.9-2.9-1.7-3.2c-.8-.4-2.1-.6-2.9-.6h-1.5v7.6h0Z"/>
      <path class="st1" d="M443,117.7v18.7h-1.2v-18.7h1.2Z"/>
      <path class="st1" d="M458.2,120.8c-1.1-2.2-3.2-2.3-3.7-2.3-2.2,0-3.5,1.6-3.5,3.5s1.4,2.7,3.3,3.6c1.8.9,2.8,1.3,3.7,2,.8.6,2,1.5,2,3.6,0,3.1-2.6,5.5-5.8,5.5s-3.6-1.1-4.3-2c-.7-.8-1-1.6-1.2-2l1.1-.5c.3.7.7,1.5,1,1.8.8,1.1,2.2,1.6,3.5,1.6,2.5,0,4.5-1.8,4.5-4.3s-.4-2.1-1.8-2.9c-.5-.3-1.6-.9-3.2-1.6-1.8-.9-2.8-1.4-3.4-2.5-.4-.7-.6-1.4-.6-2.1,0-2.2,1.5-4.6,4.8-4.6s3.6.9,4.5,2.7l-.9.8v-.3Z"/>
      <path class="st1" d="M465,136.3l2.1-19.3,8.1,17.3,8.1-17.3,2.1,19.3h-1.2l-1.7-15-7.3,15.7-7.3-15.7-1.7,15h-1.2,0Z"/>
      <path class="st1" d="M500.9,118.8h-7.7v6.8h7.6v1.1h-7.6v8.5h7.7v1.1h-9v-18.7h9v1.1h0Z"/>
    </g>
  </g>
</svg>