<?xml version="1.0" encoding="UTF-8" standalone="no"?>
<svg
   xmlns:dc="http://purl.org/dc/elements/1.1/"
   xmlns:cc="http://creativecommons.org/ns#"
   xmlns:rdf="http://www.w3.org/1999/02/22-rdf-syntax-ns#"
   xmlns:svg="http://www.w3.org/2000/svg"
   xmlns="http://www.w3.org/2000/svg"
   xmlns:xlink="http://www.w3.org/1999/xlink"
   xmlns:sodipodi="http://sodipodi.sourceforge.net/DTD/sodipodi-0.dtd"
   xmlns:inkscape="http://www.inkscape.org/namespaces/inkscape"
   sodipodi:docname="LogoUfolep.svg"
   inkscape:version="1.0beta1 (76ce730, 2019-10-19)"
   version="1.1"
   id="svg4983"
   height="138.39241"
   width="305.00003"
   viewBox="115 0 200 140">
  <defs
     id="defs4985">
    <linearGradient
       id="linearGradient4232"
       spreadMethod="pad"
       gradientTransform="matrix(272.64749,0,0,-272.64749,139.22879,795.72101)"
       gradientUnits="userSpaceOnUse"
       y2="0"
       x2="1"
       y1="0"
       x1="0">
      <stop
         id="stop4234"
         offset="0"
         style="stop-opacity:1;stop-color:#b53387" />
      <stop
         id="stop4236"
         offset="0.236267"
         style="stop-opacity:1;stop-color:#e20054" />
      <stop
         id="stop4238"
         offset="0.472534"
         style="stop-opacity:1;stop-color:#ee8010" />
      <stop
         id="stop4240"
         offset="0.736267"
         style="stop-opacity:1;stop-color:#afcc57" />
      <stop
         id="stop4242"
         offset="1"
         style="stop-opacity:1;stop-color:#04a1a0" />
    </linearGradient>
    <linearGradient
       y2="0"
       x2="1"
       y1="0"
       x1="0"
       spreadMethod="pad"
       gradientTransform="matrix(272.64749,0,0,-272.64749,139.22879,795.72101)"
       gradientUnits="userSpaceOnUse"
       id="linearGradient5507"
       xlink:href="#linearGradient4232"
       inkscape:collect="always" />
  </defs>
  <sodipodi:namedview
     inkscape:document-rotation="0"
     inkscape:window-maximized="0"
     inkscape:window-y="23"
     inkscape:window-x="0"
     inkscape:window-height="788"
     inkscape:window-width="1440"
     showgrid="false"
     inkscape:current-layer="layer1"
     inkscape:document-units="px"
     inkscape:cy="267.90277"
     inkscape:cx="140.01065"
     inkscape:zoom="0.7"
     inkscape:pageshadow="2"
     inkscape:pageopacity="0.0"
     borderopacity="1.0"
     bordercolor="#666666"
     pagecolor="#ffffff"
     id="base" />
  <metadata
     id="metadata4988">
    <rdf:RDF>
      <cc:Work
         rdf:about="">
        <dc:format>image/svg+xml</dc:format>
        <dc:type
           rdf:resource="http://purl.org/dc/dcmitype/StillImage" />
        <dc:title />
      </cc:Work>
    </rdf:RDF>
  </metadata>
  <g
     transform="translate(-187.54806,-307.57317)"
     id="layer1"
     inkscape:groupmode="layer"
     inkscape:label="Calque 1">
    <g
       id="g1037">
      <g
         style="opacity:1;stroke-width:0.744094;stop-opacity:1"
         id="g4230"
         transform="matrix(1.6798947,0,0,-1.6798947,-62.451857,1618.437)">
        <path
           inkscape:connector-curvature="0"
           id="path4244"
           style="fill:url(#linearGradient5507);stroke:none;stroke-width:0.744094"
           d="m 253.346,780.244 c -2.923,-0.531 -10.891,-1.771 -17.001,-14.874 v 0 c 0,0 -0.352,-1.063 -2.301,-1.594 v 0 c -1.948,-0.531 -6.906,-0.531 -7.171,-2.213 v 0 c -0.266,-1.683 0,-5.756 1.947,-6.287 v 0 c 1.948,-0.531 4.073,-0.177 4.338,0 v 0 c 0.266,0.178 0.797,0.178 0.178,-1.771 v 0 c -0.619,-1.947 -6.02,-18.416 -6.463,-22.223 v 0 c 0,0 -1.24,-5.312 0.442,-6.109 v 0 c 1.683,-0.796 6.021,-1.593 7.968,4.957 v 0 c 1.949,6.553 5.402,26.032 6.11,26.652 v 0 c 0.708,0.619 14.697,5.311 19.213,7.791 v 0 c 4.515,2.479 5.578,4.781 3.807,4.515 v 0 c -1.771,-0.266 -17.709,-3.099 -20.365,-3.453 v 0 c -1.333,-0.178 0.548,2.19 2.908,4.557 v 0 c 2.34,2.347 5.152,4.694 5.769,4.562 v 0 c 1.241,-0.265 0.886,-1.415 2.125,-2.656 v 0 c 1.24,-1.238 5.048,-1.062 5.49,2.745 v 0 c 0.397,3.419 -3.205,5.481 -6.059,5.482 v 0 c -0.324,0 -0.638,-0.027 -0.935,-0.081 m 42.498,-6.816 c -1.418,-3.276 -13.015,-37.54 -17.265,-44.27 v 0 c 0,0 -1.86,-2.744 -0.531,-4.515 v 0 c 1.327,-1.77 2.39,-2.656 2.39,-2.656 v 0 c 0,0 18.593,28.068 22.842,45.775 v 0 c 1.977,8.232 0.813,10.743 -1.139,10.743 v 0 c -2.247,10e-4 -5.539,-3.323 -6.297,-5.077 m -87.919,-34.62 c 0,-0.443 0.177,-2.656 -1.594,-1.151 v 0 c -1.77,1.506 -2.744,1.594 -3.718,1.505 v 0 c -0.973,-0.088 -3.896,-3.719 -6.552,-3.984 v 0 c -2.655,-0.266 1.239,9.12 1.239,9.12 v 0 c 1.594,4.958 9.74,13.9 5.843,17.53 v 0 c -1.238,1.241 -3.54,1.505 -3.54,1.505 v 0 c -3.276,0.62 -10.714,-15.14 -11.688,-22.754 v 0 c -0.974,-7.615 0.443,-12.927 0.443,-12.927 v 0 c 3.188,-6.464 14.785,3.276 16.203,5.49 v 0 c 1.418,2.213 1.77,2.125 2.036,1.77 v 0 c 0.265,-0.354 -0.531,-6.729 -0.354,-8.234 v 0 c 0.177,-1.505 2.833,1.328 5.578,3.896 v 0 c 2.744,2.567 12.306,24.525 12.927,27.358 v 0 c 0.62,2.833 -3.011,4.869 -6.552,6.11 v 0 c -0.082,0.028 -0.167,0.043 -0.252,0.043 v 0 c -3.598,0.002 -10.019,-24.844 -10.019,-25.277 m 127.406,4.075 c -3.631,-12.396 -8.765,-29.218 -10.802,-35.151 v 0 c -2.037,-5.932 -2.568,-8.322 -1.682,-8.588 v 0 c 0.886,-0.265 2.212,0.885 5.578,6.73 v 0 c 3.364,5.842 11.775,21.603 11.775,21.603 v 0 c 0,0 11.776,-1.772 19.656,6.64 v 0 c 7.88,8.411 14.166,21.692 0.443,26.297 v 0 c -3.807,0.796 -8.5,-1.594 -8.5,-1.594 v 0 c 0,0 -3.098,4.957 -6.286,4.957 v 0 c -3.188,0 -6.552,-8.499 -10.182,-20.894 m 24.613,10.8 c 1.24,0 3.277,-0.972 0.708,-4.78 v 0 c -2.567,-3.807 -16.201,-18.416 -18.061,-18.859 v 0 c -1.859,-0.443 -1.859,0 -1.859,0 v 0 l 7.615,20.895 c 0,0 1.594,1.682 3.452,-0.709 v 0 c 0.316,-0.406 0.724,-0.574 1.189,-0.574 v 0 c 2.274,-10e-4 5.928,4.027 6.956,4.027 m -49.759,2.654 c -6.907,-7.791 -16.822,-21.159 -13.635,-25.941 v 0 c 3.188,-4.78 12.218,-8.677 23.375,0.885 v 0 c 3.63,4.073 -1.064,6.464 -4.162,4.516 v 0 c -3.099,-1.948 -6.906,-6.109 -10.447,-3.896 v 0 c -3.541,2.214 -0.886,6.375 4.603,7.349 v 0 c 5.49,0.974 18.064,4.25 20.012,8.765 v 0 c 1.948,4.516 2.478,14.874 -6.642,15.228 v 0 c 0,0 -0.212,0.031 -0.603,0.031 v 0 c -1.717,0 -6.874,-0.588 -12.501,-6.937 m 7.084,-3.184 c 2.479,2.834 6.109,4.782 7.791,3.365 v 0 c 1.682,-1.417 -1.682,-5.667 -2.744,-7.173 v 0 c -1.063,-1.505 -8.589,-1.681 -8.589,-1.681 v 0 c -0.176,1.417 1.063,2.656 3.542,5.489 m -53.832,8.763 c -2.39,-1.24 -10.978,-7.082 -13.723,-16.645 v 0 c -2.745,-9.562 0.886,-17.708 5.312,-19.037 v 0 c 4.427,-1.327 14.788,-3.01 21.072,10.183 v 0 c 4.517,11.686 2.392,12.572 3.63,14.342 v 0 c 1.24,1.772 7.969,7.262 7.969,8.324 v 0 c 0,1.062 -0.619,1.328 -2.567,0.088 v 0 c -1.949,-1.24 -5.046,-2.39 -6.375,-2.39 v 0 c -1.328,0 -4.605,5.754 -8.942,5.931 v 0 c 0,0 -0.693,0.078 -1.675,0.078 v 0 c -1.373,0 -3.308,-0.152 -4.701,-0.874 m -6.552,-29.572 c -2.478,2.391 -0.796,10.093 1.063,13.546 v 0 c 1.859,3.454 8.943,12.308 8.411,8.5 v 0 c 0,0 -1.682,-6.197 3.365,-6.994 v 0 c 5.047,-0.797 -0.266,-7.084 -2.568,-10.094 v 0 c -1.837,-2.403 -5.702,-5.65 -8.45,-5.65 v 0 c -0.696,0 -1.319,0.208 -1.821,0.692" />
      </g>
</g>
    </g>
</svg>
