<?xml version="1.0" encoding="UTF-8" standalone="no"?>
<svg
   xmlns:dc="http://purl.org/dc/elements/1.1/"
   xmlns:cc="http://creativecommons.org/ns#"
   xmlns:rdf="http://www.w3.org/1999/02/22-rdf-syntax-ns#"
   xmlns:svg="http://www.w3.org/2000/svg"
   xmlns="http://www.w3.org/2000/svg"
   viewBox="0 0 700 527.62517"
   height="527.62518"
   width="700"
   xml:space="preserve"
   id="svg833"
   version="1.1"><metadata
     id="metadata839"><rdf:RDF><cc:Work
         rdf:about=""><dc:format>image/svg+xml</dc:format><dc:type
           rdf:resource="http://purl.org/dc/dcmitype/StillImage" /><dc:title></dc:title></cc:Work></rdf:RDF></metadata><defs
     id="defs837" /><g
     transform="matrix(1.3333333,0,0,-1.3333333,-51.089335,272.16946)"
     id="g841"><g
       style="fill:#d60000;fill-opacity:1"
       id="g1274"><path
         id="path877"
         style="opacity:1;fill:#d60000;fill-opacity:1;fill-rule:nonzero;stroke:none;stroke-width:1;stop-opacity:1"
         d="m 358.10497,-73.21701 c 0,-5.152225 -4.04599,-9.330024 -9.03817,-9.330024 -4.99452,0 -9.04052,4.177799 -9.04052,9.330024 0,5.152225 4.046,9.330024 9.04052,9.330024 1.82176,0 3.51877,-0.557825 4.93569,-1.513422 l 0.21419,0.541348 21.59745,53.355778 -0.14122,0.534288 c -9.5042,5.0651386 -20.29351,7.9248708 -31.73009,7.9248708 -38.24745,0 -69.26907,-32.0337088 -69.26907,-71.5333188 0,-39.501968 31.02162,-71.533318 69.26907,-71.533318 38.26157,0 69.27378,32.03135 69.27378,71.533318 0,1.174491 -0.0494,0.979134 -0.10121,2.137149 l -55.03866,0.01648 z" /><path
         id="path881"
         style="opacity:1;fill:#d60000;fill-opacity:1;fill-rule:nonzero;stroke:none;stroke-width:1;stop-opacity:1"
         d="m 249.16895,-44.504828 c 12.94764,-10.685749 21.07493,-26.08829 21.07493,-43.197256 0,-32.254956 -28.84681,-58.399736 -64.4393,-58.399736 -20.08873,0 -37.82614,8.12729 -49.64636,21.1785 l 0.46838,0.83556 16.62411,25.438668 c -10.48333,10.156168 -16.91597,23.892298 -16.91597,39.007689 0,31.271114 27.50051,56.6062233 61.42423,56.6062233 16.94891,0 32.29261,-6.3267163 43.40203,-16.5487883 l -11.90967,-23.897005 z" /><path
         id="path885"
         style="opacity:1;fill:#d60000;fill-opacity:1;fill-rule:nonzero;stroke:none;stroke-width:1;stop-opacity:1"
         d="M 385.18487,-3.0363564 H 526.55685 V -59.894424 h -31.3276 v -86.208566 h -72.68192 v 85.516581 h -37.36246 z" /><path
         id="path889"
         style="opacity:1;fill:#d60000;fill-opacity:1;fill-rule:nonzero;stroke:none;stroke-width:1;stop-opacity:1"
         d="M 152.4408,-59.464405 H 126.51021 V -109.04722 H 93.989285 V -146.1037 H 38.315123 V -3.0370625 H 152.4408 Z" /></g><g
       style="fill:#1c3c99;fill-opacity:1"
       id="g1268"><path
         id="path893"
         style="opacity:1;fill:#1c3c99;fill-opacity:1;fill-rule:nonzero;stroke:none;stroke-width:1;stop-opacity:1"
         d="m 203.31061,153.56823 c 0,0 15.86386,30.6568 75.42161,25.1374 13.99504,-1.29688 18.88836,-7.40471 36.28683,2.59141 4.88626,2.8056 19.72391,3.58702 8.26615,-7.0846 -2.85502,-2.66203 -10.15616,-8.85693 1.5605,-6.51031 10.05025,2.01241 9.88314,2.40547 15.36253,4.94746 7.29173,3.3846 12.13327,-1.19803 4.35903,-6.38321 -8.1367,-5.42525 -5.19224,-3.36813 -11.92614,-6.47735 -6.73626,-3.11158 -5.33346,-8.15083 5.18047,-4.66501 11.23886,3.72353 21.13377,0.8638 10.71399,-7.20935 -6.27258,-4.86272 -15.95566,-7.73422 -27.59465,-12.49338 -5.70063,-2.33486 -20.39707,-17.30197 10.65986,-9.06641 22.40241,5.94071 20.99255,5.95718 30.58619,8.80985 9.59363,2.85268 18.63651,0.77437 8.5533,-6.47735 -10.27856,-7.39058 -18.66475,-7.00222 -23.58867,-11.14942 -4.91685,-4.14485 -1.73467,-9.45477 8.29911,-6.47736 8.08492,2.40312 12.63696,2.95153 13.39484,3.26928 6.2467,2.60553 20.04402,-3.38461 -1.72996,-12.07913 -33.22232,-13.267749 -40.33517,-37.53193 -40.96596,-38.689945 -4.68619,-8.593319 -12.53339,-13.048852 -18.65298,0.849682 -1.92061,4.359032 -1.25452,8.019019 -1.02856,14.771753 0.4166,12.500442 -5.44644,5.95954 -6.48206,1.81234 -1.03798,-4.144846 -3.62939,-16.327541 -4.92628,-22.804893 -1.29452,-6.479706 -10.3068,-50.8632219 -62.20329,-38.616977 l 2.33251,35.764305 c 0,0 -24.89733,7.705979 -23.06616,31.362908 1.65229,21.333837 2.85503,41.429637 6.73861,46.388857 3.17042,4.05305 -26.01297,-6.00191 -15.55082,20.47945" /><path
         id="path897"
         style="opacity:1;fill:#1c3c99;fill-opacity:1;fill-rule:nonzero;stroke:none;stroke-width:1;stop-opacity:1"
         d="m 148.32019,150.52279 c 0,0 -21.18556,-15.57671 -14.57875,-36.72696 5.55235,-17.770357 27.84179,-35.651334 48.31653,-39.021816 53.06863,-8.729833 30.58384,-86.825238 -32.65744,-60.906413 -24.72079,10.132631 -47.42919,33.693059 -56.796868,61.137074 -8.487403,24.862018 -2.598473,30.722705 -10.67398,41.135425 0,0 -8.452098,12.66755 -11.70725,17.85744 -7.192874,11.46953 -7.039884,22.24001 0.77201,20.15464 7.80954,-2.08302 4.947454,-2.60554 4.16603,7.54828 -0.779071,10.15381 2.031233,12.76876 8.590965,8.33206 9.019337,-6.09841 4.257824,-3.37754 4.062467,2.45254 0,0 -2.91622,17.88569 10.257377,6.66094 4.686199,-3.99421 8.889889,-11.42245 6.557379,-0.0518 -2.47373,12.0556 3.59644,15.64968 9.58422,8.12258 3.507,-4.4061 11.01997,-25.03383 26.81793,-21.35031 13.80204,3.21985 18.51177,-6.40439 7.28938,-15.3437" /><path
         id="path901"
         style="opacity:1;fill:#1c3c99;fill-opacity:1;fill-rule:nonzero;stroke:none;stroke-width:1;stop-opacity:1"
         d="m 415.32245,105.36091 c 0,0 16.06393,26.17302 43.54089,35.50305 0,0 21.51037,10.10909 21.51037,20.736 0,10.62926 -1.30159,15.03066 -4.93098,22.80724 -3.62468,7.77424 3.37048,14.51756 11.66488,10.37036 8.30147,-4.14955 12.43925,-13.22303 24.36775,0.51546 11.92614,13.73848 22.28473,8.81456 20.72894,2.85267 -1.55579,-5.96425 -5.64415,-15.12481 3.63645,-3.63174 5.44173,6.74096 15.55082,-0.77672 11.1353,-5.95719 -3.16571,-3.72589 -9.17703,-14.12684 1.8194,-3.8883 7.51062,6.99988 13.2701,-3.72824 9.33003,-8.55095 -4.66502,-5.70534 -8.03785,-13.22302 -0.77672,-10.37035 7.26113,2.85267 8.03785,-6.99987 1.55343,-14.77411 C 551.85995,142.52566 545.891,138.42553 535.84075,135.42223 513.29241,128.68597 506.64088,110.18362 494.63,90.325544 488.67046,80.480063 460.61449,42.517411 415.58136,20.350367 348.71305,-12.568329 298.949,68.55392 377.73874,93.178215 c 0,0 24.88085,5.441729 37.58371,12.182695" /></g></g></svg>
