<?xml version="1.0" encoding="utf-8"?>
<svg version="1.1" id="Calque_1" xmlns="http://www.w3.org/2000/svg" xmlns:xlink="http://www.w3.org/1999/xlink" x="0px" y="0px"
	 width="514.551px" height="268.89px" viewBox="0 0 514.551 268.89" style="enable-background:new 0 0 514.551 268.89;"
	 xml:space="preserve">
<style type="text/css">
	.st0{display:none;}
	.st1{display:inline;fill:#13007C;}
	.st2{display:inline;}
	.st3{fill:#FFFFFF;}
	.st4{fill:url(#SVGID_1_);}
	.st5{fill:url(#SVGID_2_);}
	.st6{fill:url(#SVGID_3_);}
	.st7{fill:url(#SVGID_4_);}
	.st8{fill:url(#SVGID_5_);}
	.st9{fill:url(#SVGID_6_);}
	.st10{fill:url(#SVGID_7_);}
	.st11{fill:url(#SVGID_8_);}
	.st12{fill:#0C1365;}
	.st13{fill:#FF0000;}
</style>
<g id="Fond_fictif" class="st0">
	<rect x="-83" y="-127.21" class="st1" width="723" height="467"/>
	<g class="st2">
		<path class="st3" d="M756.911,194v-8.083h1.14l2.591,4.09c0.6,0.947,1.067,1.799,1.451,2.626l0.023-0.012
			c-0.096-1.079-0.119-2.063-0.119-3.322v-3.382h0.983V194h-1.056l-2.566-4.102c-0.564-0.9-1.104-1.823-1.512-2.699l-0.036,0.012
			c0.061,1.019,0.084,1.991,0.084,3.334V194H756.911z"/>
		<path class="st3" d="M765.358,191.29c0.024,1.427,0.935,2.015,1.991,2.015c0.756,0,1.211-0.132,1.607-0.3l0.18,0.756
			c-0.372,0.168-1.008,0.372-1.931,0.372c-1.787,0-2.854-1.188-2.854-2.938c0-1.751,1.031-3.13,2.723-3.13
			c1.895,0,2.398,1.667,2.398,2.734c0,0.216-0.024,0.384-0.036,0.492L765.358,191.29L765.358,191.29z M768.453,190.534
			c0.012-0.671-0.276-1.715-1.463-1.715c-1.067,0-1.535,0.983-1.619,1.715H768.453z"/>
		<path class="st3" d="M773.327,190.09c0-0.744-0.024-1.343-0.049-1.895h0.948l0.048,0.995h0.023
			c0.432-0.708,1.115-1.127,2.063-1.127c1.403,0,2.458,1.187,2.458,2.95c0,2.087-1.271,3.118-2.639,3.118
			c-0.768,0-1.438-0.336-1.786-0.912h-0.024v3.154h-1.043v-6.283H773.327z M774.37,191.637c0,0.156,0.024,0.3,0.048,0.432
			c0.192,0.732,0.828,1.235,1.583,1.235c1.115,0,1.764-0.911,1.764-2.243c0-1.163-0.612-2.159-1.727-2.159
			c-0.72,0-1.392,0.516-1.595,1.307c-0.036,0.132-0.072,0.288-0.072,0.432L774.37,191.637L774.37,191.637z"/>
		<path class="st3" d="M784.232,192.609c0,0.503,0.024,0.995,0.096,1.391h-0.959l-0.084-0.731h-0.036
			c-0.323,0.456-0.947,0.863-1.775,0.863c-1.175,0-1.774-0.828-1.774-1.667c0-1.403,1.247-2.171,3.49-2.159v-0.12
			c0-0.479-0.132-1.343-1.319-1.343c-0.54,0-1.103,0.168-1.512,0.432l-0.239-0.695c0.479-0.312,1.175-0.516,1.906-0.516
			c1.775,0,2.207,1.211,2.207,2.374L784.232,192.609L784.232,192.609z M783.213,191.038c-1.151-0.024-2.458,0.18-2.458,1.307
			c0,0.684,0.455,1.008,0.995,1.008c0.756,0,1.235-0.48,1.403-0.972c0.036-0.108,0.06-0.228,0.06-0.336V191.038z"/>
		<path class="st3" d="M785.795,192.92c0.312,0.204,0.863,0.42,1.392,0.42c0.768,0,1.127-0.384,1.127-0.863
			c0-0.504-0.3-0.78-1.079-1.068c-1.044-0.372-1.535-0.947-1.535-1.643c0-0.935,0.756-1.703,2.003-1.703
			c0.588,0,1.104,0.167,1.427,0.359l-0.264,0.768c-0.227-0.144-0.647-0.335-1.188-0.335c-0.623,0-0.971,0.36-0.971,0.791
			c0,0.48,0.348,0.695,1.103,0.983c1.008,0.384,1.523,0.888,1.523,1.751c0,1.02-0.791,1.751-2.171,1.751
			c-0.636,0-1.223-0.168-1.631-0.408L785.795,192.92z"/>
		<path class="st3" d="M794.41,186.564c0.012,0.36-0.252,0.648-0.672,0.648c-0.371,0-0.636-0.288-0.636-0.648
			c0-0.372,0.276-0.66,0.66-0.66C794.158,185.904,794.41,186.192,794.41,186.564z M793.235,194v-5.805h1.055V194H793.235z"/>
		<path class="st3" d="M796.043,189.766c0-0.6-0.013-1.091-0.049-1.571h0.924l0.048,0.936h0.036
			c0.324-0.552,0.863-1.067,1.823-1.067c0.791,0,1.391,0.479,1.643,1.163h0.024c0.18-0.324,0.407-0.576,0.647-0.755
			c0.348-0.264,0.732-0.408,1.283-0.408c0.768,0,1.907,0.503,1.907,2.519V194h-1.031v-3.286c0-1.115-0.408-1.787-1.26-1.787
			c-0.6,0-1.067,0.444-1.247,0.96c-0.048,0.144-0.084,0.336-0.084,0.528V194h-1.031v-3.478c0-0.923-0.408-1.595-1.212-1.595
			c-0.659,0-1.139,0.528-1.307,1.056c-0.061,0.156-0.084,0.335-0.084,0.516V194h-1.031v-4.234H796.043z"/>
		<path class="st3" d="M806.051,190.09c0-0.744-0.024-1.343-0.049-1.895h0.948l0.048,0.995h0.023
			c0.432-0.708,1.115-1.127,2.064-1.127c1.403,0,2.458,1.187,2.458,2.95c0,2.087-1.271,3.118-2.639,3.118
			c-0.768,0-1.439-0.336-1.786-0.912h-0.024v3.154h-1.043V190.09z M807.094,191.637c0,0.156,0.024,0.3,0.048,0.432
			c0.192,0.732,0.828,1.235,1.583,1.235c1.115,0,1.764-0.911,1.764-2.243c0-1.163-0.612-2.159-1.728-2.159
			c-0.72,0-1.392,0.516-1.595,1.307c-0.036,0.132-0.072,0.288-0.072,0.432L807.094,191.637L807.094,191.637z"/>
		<path class="st3" d="M818.132,191.05c0,2.146-1.487,3.082-2.891,3.082c-1.571,0-2.782-1.151-2.782-2.986
			c0-1.943,1.271-3.082,2.878-3.082C817.004,188.063,818.132,189.274,818.132,191.05z M813.526,191.109
			c0,1.271,0.731,2.231,1.763,2.231c1.008,0,1.763-0.947,1.763-2.255c0-0.983-0.491-2.23-1.738-2.23
			C814.065,188.855,813.526,190.006,813.526,191.109z"/>
		<path class="st3" d="M819.467,190.006c0-0.684-0.013-1.271-0.049-1.811h0.924l0.036,1.139h0.048
			c0.264-0.779,0.899-1.271,1.607-1.271c0.12,0,0.203,0.012,0.3,0.036v0.996c-0.108-0.024-0.216-0.036-0.36-0.036
			c-0.743,0-1.271,0.564-1.415,1.355c-0.023,0.144-0.048,0.311-0.048,0.492V194h-1.043V190.006z"/>
		<path class="st3" d="M824.949,186.804v1.392h1.512v0.803h-1.512v3.13c0,0.72,0.204,1.128,0.792,1.128
			c0.288,0,0.456-0.024,0.611-0.072l0.048,0.792c-0.203,0.084-0.527,0.156-0.936,0.156c-0.491,0-0.887-0.168-1.139-0.456
			c-0.3-0.312-0.408-0.828-0.408-1.511v-3.167h-0.899v-0.803h0.899v-1.067L824.949,186.804z"/>
		<path class="st3" d="M828.166,191.29c0.024,1.427,0.936,2.015,1.991,2.015c0.756,0,1.211-0.132,1.607-0.3l0.18,0.756
			c-0.372,0.168-1.008,0.372-1.931,0.372c-1.787,0-2.854-1.188-2.854-2.938c0-1.751,1.031-3.13,2.723-3.13
			c1.895,0,2.398,1.667,2.398,2.734c0,0.216-0.024,0.384-0.036,0.492L828.166,191.29L828.166,191.29z M831.261,190.534
			c0.012-0.671-0.276-1.715-1.463-1.715c-1.067,0-1.535,0.983-1.619,1.715H831.261z"/>
		<path class="st3" d="M833.591,190.006c0-0.684-0.013-1.271-0.049-1.811h0.924l0.036,1.139h0.048
			c0.264-0.779,0.899-1.271,1.607-1.271c0.12,0,0.204,0.012,0.3,0.036v0.996c-0.108-0.024-0.216-0.036-0.36-0.036
			c-0.743,0-1.271,0.564-1.415,1.355c-0.023,0.144-0.048,0.311-0.048,0.492V194h-1.043V190.006z"/>
		<path class="st3" d="M840.059,185.485h1.055V194h-1.055V185.485z"/>
		<path class="st3" d="M843.477,191.29c0.025,1.427,0.936,2.015,1.991,2.015c0.756,0,1.211-0.132,1.607-0.3l0.18,0.756
			c-0.372,0.168-1.008,0.372-1.931,0.372c-1.787,0-2.854-1.188-2.854-2.938c0-1.751,1.031-3.13,2.723-3.13
			c1.895,0,2.398,1.667,2.398,2.734c0,0.216-0.024,0.384-0.036,0.492L843.477,191.29L843.477,191.29z M846.572,190.534
			c0.012-0.671-0.276-1.715-1.463-1.715c-1.067,0-1.535,0.983-1.619,1.715H846.572z"/>
		<path class="st3" d="M851.554,194v-5.001h-0.815v-0.803h0.815v-0.276c0-0.816,0.18-1.559,0.672-2.027
			c0.396-0.384,0.923-0.54,1.415-0.54c0.372,0,0.695,0.084,0.899,0.168l-0.143,0.816c-0.156-0.072-0.372-0.132-0.672-0.132
			c-0.899,0-1.127,0.792-1.127,1.679v0.312H854v0.803h-1.402V194H851.554z"/>
		<path class="st3" d="M860.047,191.05c0,2.146-1.487,3.082-2.891,3.082c-1.571,0-2.782-1.151-2.782-2.986
			c0-1.943,1.27-3.082,2.878-3.082C858.919,188.063,860.047,189.274,860.047,191.05z M855.441,191.109
			c0,1.271,0.731,2.231,1.763,2.231c1.008,0,1.763-0.947,1.763-2.255c0-0.983-0.491-2.23-1.738-2.23
			C855.98,188.855,855.441,190.006,855.441,191.109z"/>
		<path class="st3" d="M861.382,189.766c0-0.6-0.013-1.091-0.049-1.571h0.936l0.061,0.96h0.023c0.288-0.552,0.96-1.091,1.919-1.091
			c0.804,0,2.051,0.479,2.051,2.47V194h-1.055v-3.346c0-0.936-0.348-1.715-1.344-1.715c-0.695,0-1.235,0.492-1.415,1.079
			c-0.048,0.132-0.072,0.312-0.072,0.492V194h-1.055V189.766z"/>
		<path class="st3" d="M873.055,185.485v7.016c0,0.516,0.012,1.103,0.048,1.499h-0.947l-0.048-1.007h-0.024
			c-0.323,0.648-1.031,1.139-1.979,1.139c-1.403,0-2.482-1.188-2.482-2.95c-0.013-1.931,1.188-3.118,2.602-3.118
			c0.888,0,1.487,0.419,1.751,0.887h0.023v-3.466H873.055z M871.999,190.558c0-0.132-0.012-0.312-0.048-0.444
			c-0.155-0.672-0.732-1.224-1.523-1.224c-1.091,0-1.738,0.959-1.738,2.243c0,1.175,0.575,2.146,1.715,2.146
			c0.708,0,1.355-0.468,1.547-1.259c0.036-0.144,0.048-0.288,0.048-0.455v-1.007H871.999z"/>
		<path class="st3" d="M877.353,185.485h1.043v3.646h0.024c0.371-0.648,1.043-1.067,1.978-1.067c1.44,0,2.459,1.199,2.446,2.962
			c0,2.075-1.307,3.106-2.603,3.106c-0.839,0-1.511-0.324-1.942-1.091h-0.036L878.217,194h-0.912
			c0.024-0.396,0.049-0.983,0.049-1.499L877.353,185.485L877.353,185.485z M878.396,191.673c0,0.132,0.024,0.264,0.048,0.384
			c0.204,0.731,0.815,1.235,1.583,1.235c1.104,0,1.764-0.899,1.764-2.231c0-1.163-0.6-2.159-1.728-2.159
			c-0.72,0-1.392,0.492-1.607,1.295c-0.023,0.12-0.06,0.264-0.06,0.432L878.396,191.673L878.396,191.673z"/>
		<path class="st3" d="M884.182,185.485h1.055V194h-1.055V185.485z"/>
		<path class="st3" d="M887.601,191.29c0.024,1.427,0.935,2.015,1.991,2.015c0.756,0,1.211-0.132,1.607-0.3l0.18,0.756
			c-0.372,0.168-1.008,0.372-1.931,0.372c-1.787,0-2.854-1.188-2.854-2.938c0-1.751,1.031-3.13,2.723-3.13
			c1.894,0,2.398,1.667,2.398,2.734c0,0.216-0.024,0.384-0.036,0.492L887.601,191.29L887.601,191.29z M890.695,190.534
			c0.012-0.671-0.276-1.715-1.463-1.715c-1.067,0-1.535,0.983-1.619,1.715H890.695z"/>
		<path class="st3" d="M897.882,192.417c0,0.6,0.013,1.128,0.049,1.583h-0.936l-0.06-0.947h-0.023
			c-0.276,0.468-0.888,1.079-1.919,1.079c-0.912,0-2.003-0.503-2.003-2.542v-3.394h1.055v3.214c0,1.103,0.336,1.847,1.296,1.847
			c0.707,0,1.199-0.492,1.391-0.96c0.061-0.156,0.097-0.348,0.097-0.54v-3.562h1.055v4.222H897.882z"/>
		<path class="st3" d="M904.628,190.366v0.779h-2.963v-0.779H904.628z"/>
		<path class="st3" d="M908.444,185.916h4.354v0.876h-3.31v2.686h3.059v0.863h-3.059V194h-1.044V185.916z"/>
		<path class="st3" d="M919.134,191.05c0,2.146-1.487,3.082-2.891,3.082c-1.571,0-2.782-1.151-2.782-2.986
			c0-1.943,1.271-3.082,2.878-3.082C918.006,188.063,919.134,189.274,919.134,191.05z M914.528,191.109
			c0,1.271,0.732,2.231,1.763,2.231c1.008,0,1.763-0.947,1.763-2.255c0-0.983-0.491-2.23-1.738-2.23
			C915.067,188.855,914.528,190.006,914.528,191.109z"/>
		<path class="st3" d="M920.469,189.766c0-0.6-0.013-1.091-0.049-1.571h0.936l0.061,0.96h0.023c0.288-0.552,0.96-1.091,1.919-1.091
			c0.804,0,2.051,0.479,2.051,2.47V194h-1.055v-3.346c0-0.936-0.349-1.715-1.344-1.715c-0.695,0-1.235,0.492-1.415,1.079
			c-0.048,0.132-0.072,0.312-0.072,0.492V194h-1.055V189.766z"/>
		<path class="st3" d="M932.142,185.485v7.016c0,0.516,0.012,1.103,0.048,1.499h-0.947l-0.048-1.007h-0.024
			c-0.323,0.648-1.031,1.139-1.978,1.139c-1.403,0-2.482-1.188-2.482-2.95c-0.013-1.931,1.188-3.118,2.602-3.118
			c0.888,0,1.487,0.419,1.751,0.887h0.023v-3.466H932.142z M931.086,190.558c0-0.132-0.012-0.312-0.048-0.444
			c-0.155-0.672-0.732-1.224-1.523-1.224c-1.092,0-1.739,0.959-1.739,2.243c0,1.175,0.575,2.146,1.715,2.146
			c0.708,0,1.356-0.468,1.547-1.259c0.036-0.144,0.048-0.288,0.048-0.455V190.558z"/>
		<path class="st3" d="M936.548,194v-5.001h-0.815v-0.803h0.815v-0.312c0-1.535,0.899-2.531,2.53-2.531
			c0.54,0,1.176,0.168,1.476,0.384l-0.3,0.804c-0.252-0.18-0.708-0.336-1.224-0.336c-1.115,0-1.438,0.78-1.438,1.703v0.288h3.37V194
			h-1.044v-5.001h-2.326V194H936.548z"/>
		<path class="st3" d="M946.854,193.784c-0.276,0.144-0.888,0.348-1.668,0.348c-1.751,0-2.89-1.199-2.89-2.974
			c0-1.787,1.223-3.082,3.118-3.082c0.623,0,1.175,0.156,1.463,0.3l-0.239,0.816c-0.252-0.144-0.648-0.275-1.224-0.275
			c-1.331,0-2.051,0.983-2.051,2.194c0,1.343,0.863,2.171,2.015,2.171c0.6,0,0.995-0.156,1.295-0.288L946.854,193.784z"/>
		<path class="st3" d="M949.519,186.804v1.392h1.512v0.803h-1.512v3.13c0,0.72,0.204,1.128,0.792,1.128
			c0.288,0,0.456-0.024,0.611-0.072l0.048,0.792c-0.203,0.084-0.527,0.156-0.936,0.156c-0.491,0-0.887-0.168-1.139-0.456
			c-0.3-0.312-0.408-0.828-0.408-1.511v-3.167h-0.899v-0.803h0.899v-1.067L949.519,186.804z"/>
		<path class="st3" d="M953.395,186.564c0.012,0.36-0.252,0.648-0.672,0.648c-0.371,0-0.636-0.288-0.636-0.648
			c0-0.372,0.276-0.66,0.66-0.66C953.144,185.904,953.395,186.192,953.395,186.564z M952.221,194v-5.805h1.055V194H952.221z"/>
		<path class="st3" d="M955.136,194v-5.001h-0.815v-0.803h0.815v-0.276c0-0.816,0.18-1.559,0.672-2.027
			c0.396-0.384,0.923-0.54,1.415-0.54c0.372,0,0.695,0.084,0.899,0.168l-0.144,0.816c-0.156-0.072-0.372-0.132-0.672-0.132
			c-0.899,0-1.127,0.792-1.127,1.679v0.312h1.402v0.803h-1.402V194H955.136z"/>
	</g>
</g>
<g id="Calque_1_1_">
	<g>
		<path class="st3" d="M496.261,201.613c-1.755-3.451-3.704-6.973-5.827-10.54V65.691c0-20.859-13.657-28.686-25.354-29.047
			l-0.124-0.004h-98.271c-10.717-8.066-21.329-14.594-31.272-19.268c-11.089-5.184-21.293-8.204-30.431-8.244
			c-6.903-0.021-13.676,1.914-18.463,6.936c-4.335,4.522-6.079,10.648-6.051,16.817c0,1.232,0.088,2.49,0.216,3.758H31.226
			l-0.117,0.004C19.411,36.997,5.748,44.816,5.748,65.69v172.194h7.854l419.425,0.004c4.554,3.748,9.08,7.183,13.51,10.185
			c14.153,9.489,27.142,15.319,38.764,15.444h0.094c5.104,0,10.191-1.351,14.242-4.623c5.817-4.728,7.981-12.003,7.944-19.42
			C507.526,228.506,503.38,215.701,496.261,201.613z"/>
		<g>
			
				<radialGradient id="SVGID_1_" cx="374.9535" cy="682.5595" r="186.8103" gradientTransform="matrix(1 0 0 -1 0 842)" gradientUnits="userSpaceOnUse">
				<stop  offset="0" style="stop-color:#5C97C6"/>
				<stop  offset="0.6484" style="stop-color:#0D2580"/>
				<stop  offset="0.8791" style="stop-color:#0C1365"/>
			</radialGradient>
			<path class="st4" d="M490.34,205.018c5.869,17.419,5.678,31.103-1.99,36.759c-15.01,11.058-52.711-12.912-84.635-53.199
				c-19.254-24.299-30.846-53.431-35.182-64.94l-4.748,21.627c7.248,20.246,7.859,36.086,0.117,41.208
				c-12.961,8.565-44.408-16.136-70.232-55.185c-2.688-4.061-5.146-8.069-7.4-12.006c4.416,14.249,9.666,26.324,12.152,31.751
				H22.869l-0.003,69.806h405.536c25.729,25.07,51.299,37.619,62.986,29.009C500.209,243.34,499.149,226.227,490.34,205.018z"/>
			
				<linearGradient id="SVGID_2_" gradientUnits="userSpaceOnUse" x1="248.325" y1="761.9156" x2="280.8162" y2="813.5206" gradientTransform="matrix(181.4966 0 0 -53.7858 -51641.8633 44400.2578)">
				<stop  offset="0" style="stop-color:#FFFFFF"/>
				<stop  offset="1" style="stop-color:#0B0D52"/>
			</linearGradient>
			<path class="st5" d="M353.119,196.698c-0.324-4.175-2.527-8.034-6.279-11.48c-3.695-1.755-7.695-4.275-11.883-7.455
				c-17.123-7.709-44.652-12.473-75.27-10.095c-50.094,3.891-89.487,23.749-87.981,43.12c0.279,3.607,1.961,6.979,4.83,10.051
				H333.74C346.451,213.725,353.785,205.262,353.119,196.698z"/>
			<g>
				<g>
					<g>
						
							<radialGradient id="SVGID_3_" cx="193.5605" cy="716.5887" r="43.6531" gradientTransform="matrix(-1 0 0 -1 544.8838 842)" gradientUnits="userSpaceOnUse">
							<stop  offset="0" style="stop-color:#4365AD"/>
							<stop  offset="0.544" style="stop-color:#0D0B61"/>
							<stop  offset="1" style="stop-color:#040018"/>
						</radialGradient>
						<path class="st6" d="M367.951,181.478c0.469,2.914,4.047-3.267,5.496-8.424c3.1-11.044,4.963-30.492-12.449-67.004
							c-9.195-19.272-9.404-21.786-3.48-21.786c4.904,0-29.133-20.316-30.313-14.679c-1.191,5.632,31.068,54.162,31.068,54.162
							l12.211,44.564C370.485,168.311,367.596,179.267,367.951,181.478z"/>
						
							<radialGradient id="SVGID_4_" cx="146.9527" cy="804.925" r="85.0261" gradientTransform="matrix(-1 0 0 -1 544.8838 842)" gradientUnits="userSpaceOnUse">
							<stop  offset="0" style="stop-color:#5C97C6"/>
							<stop  offset="0.544" style="stop-color:#0D2580"/>
							<stop  offset="1" style="stop-color:#0C1365"/>
						</radialGradient>
						<path class="st7" d="M410.512,72.247c-7.518-8.306-80.072-65.152-111.463-46.445c-6.322,3.768,8.066,28.264,8.066,28.264
							l88.609,34.411L410.512,72.247z"/>
						
							<radialGradient id="SVGID_5_" cx="105.1725" cy="711.2083" r="63.393" gradientTransform="matrix(-1 0 0 -1 544.8838 842)" gradientUnits="userSpaceOnUse">
							<stop  offset="0" style="stop-color:#5C97C6"/>
							<stop  offset="0.544" style="stop-color:#0D2580"/>
							<stop  offset="1" style="stop-color:#0C1365"/>
						</radialGradient>
						<path class="st8" d="M448.657,138.789c3.049-3.377-13.545-32.535-26.287-48.158c-9.978-12.236-12.75,10.084-12.75,10.084
							S446.215,141.493,448.657,138.789z"/>
						
							<radialGradient id="SVGID_6_" cx="211.623" cy="809.3886" r="83.6571" gradientTransform="matrix(-1 0 0 -1 544.8838 842)" gradientUnits="userSpaceOnUse">
							<stop  offset="0" style="stop-color:#5C97C6"/>
							<stop  offset="0.544" style="stop-color:#0D2580"/>
							<stop  offset="0.8516" style="stop-color:#0C1365"/>
						</radialGradient>
						<path class="st9" d="M398.057,68.397c-3.281-4.543-7.479,0.719-20.465-9.559c-27.752-21.983-68.334-46.731-81.949-30.095
							c-7.121,8.707-0.461,29.573,30.463,65.271c28.438,32.824,37.547,51.959,40.525,72.813c2.078,14.534-2.729,19.645-2.729,19.645
							c14.098-6.538,11.027-34.469,3.322-54.033c-6.498-16.493-14.561-30.112-21.645-39.138
							c-8.602-10.967-12.156-17.308-7.113-15.719c15.551,4.919,23.256,13.936,36.172,26.396
							c22.365,21.574,67.121,37.641,73.842,34.952c4.18-1.663-25.027-40.889-35.32-47.415
							C394.67,79.788,398.057,68.397,398.057,68.397z"/>
						
							<radialGradient id="SVGID_7_" cx="115.4407" cy="748.6474" r="49.4027" gradientTransform="matrix(-1 0 0 -1 544.8838 842)" gradientUnits="userSpaceOnUse">
							<stop  offset="0" style="stop-color:#FE7824"/>
							<stop  offset="0.4341" style="stop-color:#FF0000"/>
							<stop  offset="0.6703" style="stop-color:#FF0000"/>
							<stop  offset="1" style="stop-color:#490001"/>
						</radialGradient>
						<path class="st10" d="M368.035,51.594c-3.496-4.334-10.371-7.316-10.371-7.316s47.973,11.09,65.969,31.815
							c10.885,12.529,7.06,32.909-3.346,34.508C411.994,111.881,381.815,68.635,368.035,51.594z"/>
						
							<radialGradient id="SVGID_8_" cx="140.5592" cy="774.9878" r="34.0198" gradientTransform="matrix(-1 0 0 -1 544.8838 842)" gradientUnits="userSpaceOnUse">
							<stop  offset="0" style="stop-color:#FE7824"/>
							<stop  offset="0.4341" style="stop-color:#FF0000"/>
							<stop  offset="0.7363" style="stop-color:#FF0000"/>
							<stop  offset="1" style="stop-color:#860001"/>
						</radialGradient>
						<path class="st11" d="M357.664,44.279c0,0,53.211,17.06,66.336,42.689c13.111,25.638-8.504,30.078-24.691,17.026
							C384.065,91.702,369.616,53.974,357.664,44.279z"/>
					</g>
				</g>
				<g>
					<g>
						<g>
							<path class="st12" d="M41.216,61.424h17.502v5.763H48.336v6.061h9.746v5.762h-9.746v12.669h-7.12V61.424z"/>
							<path class="st12" d="M62.648,61.424h17.499v5.763H69.769v6.061h9.741v5.762h-9.741v6.906h10.847v5.763H62.648L62.648,61.424
								L62.648,61.424z M70.571,53.541h6.611l-4.236,6.019h-4.491L70.571,53.541z"/>
							<path class="st12" d="M84.883,61.424h10.55c7.033,0,10.045,3.642,10.045,14.151c0,10.976-1.402,16.103-10.764,16.103h-9.831
								V61.424z M92.002,86.424h1.906c3.305,0,4.449-1.314,4.449-10.382c0-7.372-0.593-9.365-4.363-9.365h-1.992V86.424z"/>
							<path class="st12" d="M110.253,61.424h17.499v5.763h-10.381v6.061h9.744v5.762h-9.744v6.906h10.85v5.763h-17.967
								L110.253,61.424L110.253,61.424z M118.174,53.541h6.611l-4.236,6.019h-4.492L118.174,53.541z"/>
							<path class="st12" d="M132.486,61.424h11.949c6.061,0,8.135,3.725,8.135,7.881c0,4.406-1.779,6.566-5.084,7.373v0.085
								c4.535,0.636,4.787,3.476,4.875,7.542c0.127,5.974,0.338,6.568,1.357,6.988v0.385h-7.67c-0.553-1.02-0.768-2.713-0.768-6.147
								c0-5.252-0.719-6.355-2.965-6.355h-2.713v12.502h-7.117V61.424H132.486z M139.603,74.178h2.207
								c2.881,0,3.645-2.162,3.645-3.941c0-2.288-0.85-3.815-3.69-3.815h-2.162V74.178z"/>
							<path class="st12" d="M163.449,61.424h8.9l7.539,30.254h-7.372l-1.1-5.763h-7.248l-1.057,5.763h-7.373L163.449,61.424z
								 M167.769,66.931h-0.084l-2.498,13.475h5.168L167.769,66.931z"/>
							<path class="st12" d="M185.306,67.187h-6.355v-5.763h19.83v5.763h-6.359v24.491h-7.115V67.187H185.306z"/>
							<path class="st12" d="M202.412,61.424h7.119v30.254h-7.119V61.424z"/>
							<path class="st12" d="M225.074,92.269c-9.363,0-10.635-6.103-10.635-15.719c0-9.619,1.271-15.721,10.635-15.721
								c10.088,0,10.639,7.333,10.639,15.721C235.713,84.94,235.162,92.269,225.074,92.269z M225.031,87.525
								c2.883,0,3.307-2.671,3.307-10.975c0-8.306-0.424-10.974-3.307-10.974c-2.795,0-3.219,2.668-3.219,10.974
								C221.812,84.854,222.236,87.525,225.031,87.525z"/>
							<path class="st12" d="M240.488,61.424h8.178l5.844,19.658h0.088V61.424h6.608v30.254h-8.051l-6.227-20.85h-0.084v20.85
								h-6.356L240.488,61.424L240.488,61.424z"/>
						</g>
					</g>
				</g>
				<g>
					<g>
						<g>
							<path class="st3" d="M84.393,181.102c0-4.647-0.537-6.702-3.041-6.702c-2.991,0-3.26,2.859-3.26,11.218
								c0,9.474,0.313,11.932,3.439,11.932c2.771,0,3.083-3.172,3.131-8.132h7.239v1.114c0,6.883-1.921,12.023-11.219,12.023
								c-9.609,0-10.369-7.194-10.369-16.804c0-8.177,0.448-16.357,11.086-16.357c6.611,0,10.233,2.861,10.233,10.369v1.339H84.393z
								"/>
							<path class="st3" d="M102.054,189.37l-8.088-19.35h8.31l3.577,11.844h0.091l3.661-11.844h8.046l-8.088,19.35v12.562h-7.51
								V189.37H102.054z"/>
							<path class="st3" d="M134.599,181.102c0-4.647-0.535-6.702-3.043-6.702c-2.992,0-3.26,2.859-3.26,11.218
								c0,9.474,0.31,11.932,3.443,11.932c2.768,0,3.082-3.172,3.125-8.132h7.242v1.114c0,6.883-1.924,12.023-11.217,12.023
								c-9.609,0-10.371-7.194-10.371-16.804c0-8.177,0.445-16.357,11.084-16.357c6.615,0,10.234,2.861,10.234,10.369v1.339H134.599
								z"/>
							<path class="st3" d="M146.357,170.02h7.514v25.831h10.859v6.08h-18.373V170.02z"/>
							<path class="st3" d="M168.31,170.02h7.512v31.911h-7.512V170.02z"/>
							<path class="st3" d="M187.933,192.188v1.116c0,2.415,0.674,4.245,3.266,4.245c2.637,0,3.394-1.964,3.394-3.799
								c0-6.881-13.719-3.036-13.719-14.973c0-5.094,2.727-9.384,10.457-9.384c7.508,0,10.191,3.799,10.191,8.714v0.76h-7.242
								c0-1.518-0.178-2.637-0.625-3.35c-0.445-0.762-1.162-1.118-2.277-1.118c-1.877,0-2.994,1.118-2.994,3.44
								c0,6.657,13.719,3.31,13.719,14.569c0,7.241-4.023,10.147-10.904,10.147c-5.453,0-10.504-1.652-10.504-8.314v-2.054h7.238
								V192.188z"/>
							<path class="st3" d="M207.072,170.02h10.996l3.928,20.96h0.094l3.799-20.96h10.859v31.911h-6.971V177.08h-0.09l-4.871,24.851
								h-5.811l-5.139-24.851h-0.09v24.851h-6.705V170.02H207.072z"/>
							<path class="st3" d="M242.75,170.02h18.456v6.077h-10.947v6.389h10.277v6.083h-10.277v7.282H261.7v6.08h-18.95L242.75,170.02
								L242.75,170.02z"/>
						</g>
					</g>
					<g>
						<g>
							<path class="st3" d="M41.321,201.931v-7.367c0-4.428,2.776-7.753,8.445-7.753c4.953,0,8.637,2.537,8.637,7.753v7.367H41.321z
								 M55.245,198.177v-3.349c0-2.18-1.339-4.26-5.119-4.26c-3.446,0-5.648,1.197-5.648,4.926v2.683H55.245z"/>
							<path class="st3" d="M41.321,183.006V170.23h3.157v9.018h3.661v-8.276h2.92v8.276h4.186v-9.21h3.157v12.969H41.321V183.006z"
								/>
						</g>
					</g>
				</g>
				<g>
					<g>
						<path class="st12" d="M41.239,106.29h15.565v3.297H44.95v9.473h11.185v3.299H44.95v14.126h-3.711V106.29z"/>
						<path class="st12" d="M65.803,106.29h9.748c4.724,0,7.721,2.79,7.721,7.569c0,3.298-1.141,6.766-4.639,7.611v0.085
							c2.612,0.297,4.091,2.453,4.259,5.033l0.253,5.16c0.171,3.343,0.718,4.185,1.607,4.735h-4.477
							c-0.632-0.633-0.926-2.877-1.012-4.355l-0.252-4.695c-0.296-4.143-2.574-4.399-4.476-4.399h-5.021v13.45h-3.712V106.29H65.803
							z M69.515,119.992h3.672c2.197,0,6.205,0,6.205-5.837c0-2.961-1.986-4.821-5.443-4.821h-4.434V119.992z"/>
						<path class="st12" d="M99.446,106.29h4.977l8.1,30.194h-3.883l-2.15-8.289h-9.621l-2.235,8.289h-3.882L99.446,106.29z
							 M97.631,125.15h8.098l-3.839-14.589h-0.086L97.631,125.15z"/>
						<path class="st12" d="M120.467,106.29h4.813l9.955,25.205h0.086V106.29h3.713v30.194h-5.104l-9.664-24.443h-0.086v24.443
							h-3.713L120.467,106.29L120.467,106.29z"/>
						<path class="st12" d="M157.609,136.993c-7.254-0.888-8.268-8.459-8.268-15.604c0-7.613,1.393-15.691,9.703-15.691
							c6.16,0,8.734,3.47,8.902,9.387h-3.881c-0.086-3.422-1.184-6.342-5.022-6.342c-5.148,0-5.82,5.666-5.82,12.647
							c0,6.977,0.672,12.645,5.82,12.645c4.512,0,5.147-4.229,5.273-7.908h3.881c-0.338,5.625-2.531,10.827-8.857,10.951
							l-1.143,1.693l0.088,0.083c0.293-0.125,0.969-0.255,1.264-0.255c1.435,0,3.375,0.892,3.375,3.214
							c0,2.157-2.15,3.637-4.514,3.637c-1.561,0-3.25-0.294-4.176-0.844l0.629-1.436c0.127,0.041,2.027,0.508,2.703,0.508
							c1.729,0,2.32-0.805,2.32-1.735c0-0.973-0.971-1.566-1.98-1.566c-0.891,0-1.436,0.172-1.607,0.296l-0.631-0.76
							L157.609,136.993z"/>
						<path class="st12" d="M183.4,106.29h4.977l8.104,30.194h-3.879l-2.156-8.289h-9.621l-2.234,8.289h-3.883L183.4,106.29z
							 M181.586,125.15h8.102l-3.842-14.589h-0.084L181.586,125.15z"/>
						<path class="st12" d="M204.424,106.29h3.713v30.194h-3.713V106.29z"/>
						<path class="st12" d="M231.646,114.113c0-3.171-1.139-5.371-4.682-5.371c-3.127,0-4.98,1.69-4.98,4.904
							c0,8.502,14.217,3.429,14.217,14.464c0,6.982-5.105,8.966-9.365,8.966c-7.047,0-9.115-3.636-9.115-10.066h3.713
							c0,3.386,0.211,7.023,5.652,7.023c2.953,0,5.236-2.116,5.236-5.329c0-8.545-14.223-3.596-14.223-14.676
							c0-2.791,1.184-8.331,8.822-8.331c5.734,0,8.354,2.875,8.436,8.416H231.646z"/>
						<path class="st12" d="M245.789,106.29h15.571v3.297h-11.856v9.473h11.182v3.299h-11.182v10.825h12.363v3.301h-16.079V106.29
							H245.789z"/>
					</g>
				</g>
			</g>
			<path class="st13" d="M386.75,56.436c-15.281-7.728-29.086-12.157-29.086-12.157c7.391,5.994,15.734,22.703,24.631,37.492
				L386.75,56.436z"/>
		</g>
	</g>
</g>
</svg>
