<svg height="314.33898755758173" width="581.5593269241845" version="1.0">
  <rect id="backgroundrect" width="100%" height="100%" x="0" y="0" fill="none" stroke="none" class="selected" style=""/>
  <defs id="defs3">
    <pattern y="0" x="0" height="6" width="6" patternUnits="userSpaceOnUse" id="EMFhbasepattern"/>
  </defs>
<g class="currentLayer" style=""><title>Layer 1</title><path id="path5" d="M295.8560881604004,291.486098515625 L295.8560881604004,276.910728515625 L309.31026816040037,276.910728515625 C318.6000681604004,276.910728515625 324.9667781604004,274.468148515625 328.45045816040044,269.663088515625 C331.21336816040036,265.298478515625 332.5748081604004,256.248938515625 332.5748081604004,242.434368515625 L332.5748081604004,77.220148515625 C332.5748081604004,62.12422851562502 331.1332881604004,52.994598515625 328.25024816040036,49.79121851562502 C324.1258981604004,45.10627851562501 317.7992281604004,42.743788515625 309.31026816040037,42.743788515625 L295.8560881604004,42.743788515625 L295.8560881604004,28.128378515625002 L403.7298381604004,28.128378515625002 C442.4106281604004,28.128378515625002 471.9617881604004,32.61310851562499 492.34328816040033,41.502478515625 C513.1251981604004,50.55202851562501 529.0219681604004,64.887138515625 540.0335781604003,84.50782851562502 C554.0883981604004,106.57109851562501 561.1358281604004,131.23710851562498 561.1358281604004,158.50586851562502 C561.1358281604004,177.726138515625 557.9724981604004,195.54492851562497 551.6858681604004,211.96223851562502 C545.3591881604004,228.33950851562503 536.0293581604004,242.39432851562498 523.6563081604004,254.166738515625 C511.2432181604004,265.899118515625 495.8669981604004,275.068788515625 477.5276581604004,281.635708515625 C459.1482781604004,288.202638515625 437.9258981604004,291.486098515625 413.90056816040044,291.486098515625 zM376.58120816040037,266.099328515625 C389.79514816040034,269.0624485156251 401.80780816040044,270.544008515625 412.6992981604004,270.544008515625 C426.63398816040035,270.544008515625 439.52758816040034,267.981308515625 451.34004816040044,262.895948515625 C463.1925481604004,257.810588515625 473.4433581604004,250.522898515625 482.1325181604004,241.03288851562502 C490.82167816040044,231.542888515625 497.66889816040043,219.97067851562502 502.6741781604004,206.27623851562498 C507.6794581604004,192.62183851562497 510.20211816040035,177.32570851562502 510.20211816040035,160.38784851562502 C510.20211816040035,143.369908515625 507.71949816040035,128.033728515625 502.7943081604004,114.37932851562499 C497.8691081604004,100.72492851562498 491.0218881604004,89.192768515625 482.2926881604004,79.702768515625 C473.52343816040036,70.25279851562499 463.0724181604004,62.96511851562502 450.89957816040044,57.87974851562501 C438.76678816040044,52.79438851562497 425.51280816040037,50.231688515625024 411.1776981604004,50.231688515625024 C405.8921181604004,50.231688515625024 400.1260381604004,50.71218851562497 393.83940816040035,51.633168515625016 C387.5527781604004,52.55413851562503 381.7866981604004,53.635278515624975 376.58120816040037,54.91662851562501 z" style="fill:#ffffff;fill-rule:nonzero;fill-opacity:1;stroke:none;" class=""/><path id="path7" d="M31.176968160400406,157.144428515625 C31.176968160400406,94.21806851562502 82.6112081604004,43.184258515625004 146.01807816040036,43.184258515625004 C209.44495816040035,43.184258515625004 260.85917816040035,94.21806851562502 260.85917816040035,157.144428515625 C260.85917816040035,220.09080851562499 209.44495816040035,271.104608515625 146.01807816040036,271.104608515625 C82.6112081604004,271.104608515625 31.176968160400406,220.09080851562499 31.176968160400406,157.144428515625 z" style="fill:#ffffff;fill-rule:evenodd;fill-opacity:1;stroke:none;" class=""/><path id="path9" d="M31.176968160400406,157.144428515625 C31.176968160400406,94.23808851562501 82.63122816040038,43.184258515625004 146.01807816040036,43.184258515625004 C209.44495816040035,43.184258515625004 260.85917816040035,94.23808851562501 260.85917816040035,157.144428515625 C260.85917816040035,220.09080851562499 209.44495816040035,271.104608515625 146.01807816040036,271.104608515625 C82.63122816040038,271.104608515625 31.176968160400406,220.09080851562499 31.176968160400406,157.144428515625 " style="fill:none;stroke:#ffffff;stroke-width:40.042225px;stroke-linecap:butt;stroke-linejoin:miter;stroke-miterlimit:8;stroke-dasharray:none;stroke-opacity:1;" class=""/><path id="path11" d="M146.09815816040037,158.105438515625 L443.2915581604004,158.105438515625 " style="fill:none;stroke:#bfbfbf;stroke-width:13.294019px;stroke-linecap:butt;stroke-linejoin:miter;stroke-miterlimit:8;stroke-dasharray:none;stroke-opacity:1;" class=""/><path id="path13" d="M413.1798081604004,159.466878515625 C413.1798081604004,143.650198515625 426.47382816040044,130.796648515625 442.81104816040045,130.796648515625 C459.1883181604004,130.796648515625 472.44229816040036,143.650198515625 472.44229816040036,159.466878515625 C472.44229816040036,175.323598515625 459.1883181604004,188.13710851562502 442.81104816040045,188.13710851562502 C426.47382816040044,188.13710851562502 413.1798081604004,175.323598515625 413.1798081604004,159.466878515625 z" style="fill:#ffffff;fill-rule:evenodd;fill-opacity:1;stroke:none;" class=""/><path id="path15" d="M114.94530816040037,160.187638515625 C114.94530816040037,144.410998515625 128.21930816040037,131.597488515625 144.5765581604004,131.597488515625 C160.95382816040035,131.597488515625 174.20779816040044,144.410998515625 174.20779816040044,160.187638515625 C174.20779816040044,175.98429851562503 160.95382816040035,188.777788515625 144.5765581604004,188.777788515625 C128.21930816040037,188.777788515625 114.94530816040037,175.98429851562503 114.94530816040037,160.187638515625 z" style="fill:#365aaf;fill-rule:evenodd;fill-opacity:1;stroke:none;" class=""/></g></svg>
