<?xml version="1.0" encoding="UTF-8" standalone="no"?>
<svg
   xmlns:dc="http://purl.org/dc/elements/1.1/"
   xmlns:cc="http://creativecommons.org/ns#"
   xmlns:rdf="http://www.w3.org/1999/02/22-rdf-syntax-ns#"
   xmlns:svg="http://www.w3.org/2000/svg"
   xmlns="http://www.w3.org/2000/svg"
   viewBox="0 0 700 527.62517"
   height="527.62518"
   width="700"
   xml:space="preserve"
   id="svg833"
   version="1.1"><metadata
     id="metadata839"><rdf:RDF><cc:Work
         rdf:about=""><dc:format>image/svg+xml</dc:format><dc:type
           rdf:resource="http://purl.org/dc/dcmitype/StillImage" /><dc:title></dc:title></cc:Work></rdf:RDF></metadata><defs
     id="defs837" /><g
     transform="matrix(1.3333333,0,0,-1.3333333,-51.089335,272.16946)"
     id="g841"><g
       style="fill:#d60000;fill-opacity:1"
       id="g1274"><path
         id="path877"
         style="opacity:1;fill:#d60000;fill-opacity:1;fill-rule:nonzero;stroke:none;stroke-width:1;stop-opacity:1"
         d="m 358.10497,-73.21701 c 0,-5.152225 -4.04599,-9.330024 -9.03817,-9.330024 -4.99452,0 -9.04052,4.177799 -9.04052,9.330024 0,5.152225 4.046,9.330024 9.04052,9.330024 1.82176,0 3.51877,-0.557825 4.93569,-1.513422 l 0.21419,0.541348 21.59745,53.355778 -0.14122,0.534288 c -9.5042,5.0651386 -20.29351,7.9248708 -31.73009,7.9248708 -38.24745,0 -69.26907,-32.0337088 -69.26907,-71.5333188 0,-39.501968 31.02162,-71.533318 69.26907,-71.533318 38.26157,0 69.27378,32.03135 69.27378,71.533318 0,1.174491 -0.0494,0.979134 -0.10121,2.137149 l -55.03866,0.01648 z" /><path
         id="path881"
         style="opacity:1;fill:#d60000;fill-opacity:1;fill-rule:nonzero;stroke:none;stroke-width:1;stop-opacity:1"
         d="m 249.16895,-44.504828 c 12.94764,-10.685749 21.07493,-26.08829 21.07493,-43.197256 0,-32.254956 -28.84681,-58.399736 -64.4393,-58.399736 -20.08873,0 -37.82614,8.12729 -49.64636,21.1785 l 0.46838,0.83556 16.62411,25.438668 c -10.48333,10.156168 -16.91597,23.892298 -16.91597,39.007689 0,31.271114 27.50051,56.6062233 61.42423,56.6062233 16.94891,0 32.29261,-6.3267163 43.40203,-16.5487883 l -11.90967,-23.897005 z" /><path
         id="path885"
         style="opacity:1;fill:#d60000;fill-opacity:1;fill-rule:nonzero;stroke:none;stroke-width:1;stop-opacity:1"
         d="M 385.18487,-3.0363564 H 526.55685 V -59.894424 h -31.3276 v -86.208566 h -72.68192 v 85.516581 h -37.36246 z" /><path
         id="path889"
         style="opacity:1;fill:#d60000;fill-opacity:1;fill-rule:nonzero;stroke:none;stroke-width:1;stop-opacity:1"
         d="M 152.4408,-59.464405 H 126.51021 V -109.04722 H 93.989285 V -146.1037 H 38.315123 V -3.0370625 H 152.4408 Z" /></g><g
       style="fill:#1c3c99;fill-opacity:1"
       id="g1268"><path
         id="path893"
         style="opacity:1;fill:#1c3c99;fill-opacity:1;fill-rule:nonzero;stroke:none;stroke-width:1;stop-opacity:1"
         d="m 203.31061,153.56823 c 0,0 15.86386,30.6568 75.42161,25.1374 13.99504,-1.29688 18.88836,-7.40471 36.28683,2.59141 4.88626,2.8056 19.72391,3.58702 8.26615,-7.0846 -2.85502,-2.66203 -10.15616,-8.85693 1.5605,-6.51031 10.05025,2.01241 9.88314,2.40547 15.36253,4.94746 7.29173,3.3846 12.13327,-1.19803 4.35903,-6.38321 -8.1367,-5.42525 -5.19224,-3.36813 -11.92614,-6.47735 -6.73626,-3.11158 -5.33346,-8.15083 5.18047,-4.66501 11.23886,3.72353 21.13377,0.8638 10.71399,-7.20935 -6.27258,-4.86272 -15.95566,-7.73422 -27.59465,-12.49338 -5.70063,-2.33486 -20.39707,-17.30197 10.65986,-9.06641 22.40241,5.94071 20.99255,5.95718 30.58619,8.80985 9.59363,2.85268 18.63651,0.77437 8.5533,-6.47735 -10.27856,-7.39058 -18.66475,-7.00222 -23.58867,-11.14942 -4.91685,-4.14485 -1.73467,-9.45477 8.29911,-6.47736 8.08492,2.40312 12.63696,2.95153 13.39484,3.26928 6.2467,2.60553 20.04402,-3.38461 -1.72996,-12.07913 -33.22232,-13.267749 -40.33517,-37.53193 -40.96596,-38.689945 -4.68619,-8.593319 -12.53339,-13.048852 -18.65298,0.849682 -1.92061,4.359032 -1.25452,8.019019 -1.02856,14.771753 0.4166,12.500442 -5.44644,5.95954 -6.48206,1.81234 -1.03798,-4.144846 -3.62939,-16.327541 -4.92628,-22.804893 -1.29452,-6.479706 -10.3068,-50.8632219 -62.20329,-38.616977 l 2.33251,35.764305 c 0,0 -24.89733,7.705979 -23.06616,31.362908 1.65229,21.333837 2.85503,41.429637 6.73861,46.388857 3.17042,4.05305 -26.01297,-6.00191 -15.55082,20.47945" /><path
         id="path897"
         style="opacity:1;fill:#1c3c99;fill-opacity:1;fill-rule:nonzero;stroke:none;stroke-width:1;stop-opacity:1"
         d="m 148.32019,150.52279 c 0,0 -21.18556,-15.57671 -14.57875,-36.72696 5.55235,-17.770357 27.84179,-35.651334 48.31653,-39.021816 53.06863,-8.729833 30.58384,-86.825238 -32.65744,-60.906413 -24.72079,10.132631 -47.42919,33.693059 -56.796868,61.137074 -8.487403,24.862018 -2.598473,30.722705 -10.67398,41.135425 0,0 -8.452098,12.66755 -11.70725,17.85744 -7.192874,11.46953 -7.039884,22.24001 0.77201,20.15464 7.80954,-2.08302 4.947454,-2.60554 4.16603,7.54828 -0.779071,10.15381 2.031233,12.76876 8.590965,8.33206 9.019337,-6.09841 4.257824,-3.37754 4.062467,2.45254 0,0 -2.91622,17.88569 10.257377,6.66094 4.686199,-3.99421 8.889889,-11.42245 6.557379,-0.0518 -2.47373,12.0556 3.59644,15.64968 9.58422,8.12258 3.507,-4.4061 11.01997,-25.03383 26.81793,-21.35031 13.80204,3.21985 18.51177,-6.40439 7.28938,-15.3437" /><path
         id="path901"
         style="opacity:1;fill:#1c3c99;fill-opacity:1;fill-rule:nonzero;stroke:none;stroke-width:1;stop-opacity:1"
         d="m 415.32245,105.36091 c 0,0 16.06393,26.17302 43.54089,35.50305 0,0 21.51037,10.10909 21.51037,20.736 0,10.62926 -1.30159,15.03066 -4.93098,22.80724 -3.62468,7.77424 3.37048,14.51756 11.66488,10.37036 8.30147,-4.14955 12.43925,-13.22303 24.36775,0.51546 11.92614,13.73848 22.28473,8.81456 20.72894,2.85267 -1.55579,-5.96425 -5.64415,-15.12481 3.63645,-3.63174 5.44173,6.74096 15.55082,-0.77672 11.1353,-5.95719 -3.16571,-3.72589 -9.17703,-14.12684 1.8194,-3.8883 7.51062,6.99988 13.2701,-3.72824 9.33003,-8.55095 -4.66502,-5.70534 -8.03785,-13.22302 -0.77672,-10.37035 7.26113,2.85267 8.03785,-6.99987 1.55343,-14.77411 C 551.85995,142.52566 545.891,138.42553 535.84075,135.42223 513.29241,128.68597 506.64088,110.18362 494.63,90.325544 488.67046,80.480063 460.61449,42.517411 415.58136,20.350367 348.71305,-12.568329 298.949,68.55392 377.73874,93.178215 c 0,0 24.88085,5.441729 37.58371,12.182695" /></g><g
       style="fill:#000000"
       id="g1313"><path
         id="path905"
         style="opacity:1;fill:#000000;fill-opacity:1;fill-rule:nonzero;stroke:none;stroke-width:1;stop-opacity:1"
         d="m 39.428179,-166.87077 h 10.784603 v -2.79383 H 42.82926 v -5.14281 h 6.856296 v -2.76558 H 42.82926 v -7.93429 h -3.401081 z" /><path
         id="path909"
         style="opacity:1;fill:#000000;fill-opacity:1;fill-rule:nonzero;stroke:none;stroke-width:1;stop-opacity:1"
         d="m 62.430782,-166.20797 -3.372836,-4.09071 H 56.70661 l 2.407824,4.09071 z m -1.520483,-11.14472 c 0.02824,1.2451 -0.524873,3.29281 -2.793829,3.29281 -2.101844,0 -2.984478,-1.90884 -3.123346,-3.29281 z m -5.917175,-2.37722 c 0.08238,-2.43136 1.962977,-3.48346 4.147201,-3.48346 1.576971,0 2.683205,0.24949 3.732951,0.6096 l 0.496628,-2.32544 c -1.160369,-0.49428 -2.763231,-0.85675 -4.700317,-0.85675 -4.368447,0 -6.941029,2.68321 -6.941029,6.80452 0,3.73295 2.266602,7.2423 6.580914,7.2423 4.370801,0 5.806551,-3.59408 5.806551,-6.55032 0,-0.63785 -0.05413,-1.13683 -0.108269,-1.44045 z" /><path
         id="path913"
         style="opacity:1;fill:#000000;fill-opacity:1;fill-rule:nonzero;stroke:none;stroke-width:1;stop-opacity:1"
         d="m 75.866346,-177.65514 c 0,0.27538 -0.02824,0.6355 -0.08238,0.91323 -0.303626,1.29924 -1.383969,2.37723 -2.932697,2.37723 -2.184223,0 -3.40108,-1.93474 -3.40108,-4.42494 0,-2.48785 1.216857,-4.28607 3.372836,-4.28607 1.383969,0 2.600826,0.94148 2.932697,2.40547 0.08238,0.30363 0.110623,0.6355 0.110623,0.99561 z m 3.401081,11.77786 v -15.84268 c 0,-1.38162 0.05414,-2.87621 0.110623,-3.78944 h -3.015076 l -0.164758,2.13009 h -0.05649 c -0.800255,-1.49459 -2.433715,-2.43372 -4.368447,-2.43372 -3.233969,0 -5.778307,2.73734 -5.778307,6.8869 -0.02824,4.50496 2.793829,7.18816 6.027798,7.18816 1.852353,0 3.179834,-0.74847 3.789439,-1.74173 h 0.05413 v 7.60242 z" /><path
         id="path917"
         style="opacity:1;fill:#000000;fill-opacity:1;fill-rule:nonzero;stroke:none;stroke-width:1;stop-opacity:1"
         d="m 92.757596,-166.20797 -3.372836,-4.09071 h -2.351336 l 2.407824,4.09071 z m -1.520483,-11.14472 c 0.02824,1.2451 -0.524873,3.29281 -2.793829,3.29281 -2.101844,0 -2.984478,-1.90884 -3.123346,-3.29281 z m -5.917175,-2.37722 c 0.08238,-2.43136 1.962977,-3.48346 4.147201,-3.48346 1.576971,0 2.683205,0.24949 3.732951,0.6096 l 0.496628,-2.32544 c -1.160369,-0.49428 -2.763231,-0.85675 -4.700317,-0.85675 -4.368447,0 -6.941029,2.68321 -6.941029,6.80452 0,3.73295 2.266602,7.2423 6.580914,7.2423 4.370801,0 5.806551,-3.59408 5.806551,-6.55032 0,-0.63785 -0.05413,-1.13683 -0.110623,-1.44045 z" /><path
         id="path921"
         style="opacity:1;fill:#000000;fill-opacity:1;fill-rule:nonzero;stroke:none;stroke-width:1;stop-opacity:1"
         d="m 97.178295,-176.38344 c 0,1.82411 -0.02824,3.15159 -0.110623,4.34256 h 2.932698 l 0.13651,-2.54434 h 0.0824 c 0.6661,1.8806 2.24071,2.84561 3.70706,2.84561 0.32952,0 0.52487,-0.0259 0.80026,-0.08 v -3.18218 c -0.30363,0.0565 -0.60726,0.0847 -1.02151,0.0847 -1.60521,0 -2.73734,-1.02386 -3.04096,-2.57258 -0.0588,-0.30598 -0.0847,-0.66374 -0.0847,-1.0215 v -6.99752 h -3.401085 z" /><path
         id="path925"
         style="opacity:1;fill:#000000;fill-opacity:1;fill-rule:nonzero;stroke:none;stroke-width:1;stop-opacity:1"
         d="m 113.90549,-178.9266 c -2.40547,0.0282 -4.70032,-0.47074 -4.70032,-2.51609 0,-1.32748 0.85675,-1.93709 1.93474,-1.93709 1.38396,0 2.35133,0.88499 2.6832,1.85235 0.0824,0.24949 0.0824,0.49899 0.0824,0.74612 z m 3.31635,-3.34695 c 0,-1.21685 0.0565,-2.40547 0.2236,-3.23632 h -3.06921 l -0.24949,1.49459 h -0.0824 c -0.80261,-1.04974 -2.21247,-1.79586 -3.98244,-1.79586 -2.7091,0 -4.22958,1.96062 -4.22958,4.00833 0,3.37284 3.01272,5.11457 7.99077,5.08868 v 0.22124 c 0,0.88264 -0.36011,2.34899 -2.73969,2.34899 -1.32513,0 -2.7091,-0.41425 -3.61998,-0.99561 l -0.66374,2.21246 c 0.99561,0.60726 2.73734,1.18862 4.86508,1.18862 4.31431,0 5.55706,-2.73499 5.55706,-5.69593 z" /><path
         id="path929"
         style="opacity:1;fill:#000000;fill-opacity:1;fill-rule:nonzero;stroke:none;stroke-width:1;stop-opacity:1"
         d="m 124.54864,-168.5852 v -3.45757 h 3.23397 v -2.54198 h -3.23397 v -5.94778 c 0,-1.65935 0.44249,-2.48549 1.74173,-2.48549 0.60725,0 0.93912,0.0259 1.32748,0.13651 l 0.0541,-2.57258 c -0.49663,-0.193 -1.40986,-0.35776 -2.45961,-0.35776 -1.27099,0 -2.2972,0.41425 -2.9327,1.10623 -0.74612,0.77201 -1.07799,2.01947 -1.07799,3.78709 v 6.33378 h -1.90648 v 2.54198 h 1.90648 v 2.51609 z" /><path
         d="m 130.35331,-172.04206 h 3.40108 v -13.46546 h -3.40108 z m 3.62232,3.76119 c 0,-0.99561 -0.74611,-1.8241 -1.93708,-1.8241 -1.13213,0 -1.87825,0.82849 -1.87825,1.8241 0,1.04975 0.77201,1.85236 1.90649,1.85236 1.16273,0 1.8806,-0.80261 1.90884,-1.85236"
         style="opacity:1;fill:#000000;fill-opacity:1;fill-rule:nonzero;stroke:none;stroke-width:1;stop-opacity:1"
         id="path931" /><path
         id="path935"
         style="opacity:1;fill:#000000;fill-opacity:1;fill-rule:nonzero;stroke:none;stroke-width:1;stop-opacity:1"
         d="m 140.08511,-178.78891 c 0,-2.60083 1.29924,-4.5638 3.34459,-4.5638 1.93709,0 3.29281,1.88295 3.29281,4.61793 0,2.1042 -0.94147,4.53556 -3.26456,4.53556 -2.40547,0 -3.37284,-2.35133 -3.37284,-4.58969 m 10.14675,0.13887 c 0,-4.94981 -3.48346,-7.16228 -6.91278,-7.16228 -3.78709,0 -6.74567,2.59847 -6.74567,6.93868 0,4.42729 2.90445,7.13638 6.96692,7.13638 4.01068,0 6.69153,-2.81972 6.69153,-6.91278" /><path
         id="path939"
         style="opacity:1;fill:#000000;fill-opacity:1;fill-rule:nonzero;stroke:none;stroke-width:1;stop-opacity:1"
         d="m 153.02239,-176.05133 c 0,1.54873 -0.0541,2.84796 -0.11062,4.00833 h 2.95858 l 0.16712,-2.01711 h 0.0824 c 0.60961,1.04975 2.0736,2.32074 4.31196,2.32074 2.35134,0 4.78505,-1.51813 4.78505,-5.77831 v -7.99077 h -3.40108 v 7.60241 c 0,1.93709 -0.72023,3.40344 -2.57258,3.40344 -1.35337,0 -2.29485,-0.96737 -2.65261,-1.99122 -0.11297,-0.27774 -0.16711,-0.69199 -0.16711,-1.08035 v -7.93428 h -3.40108 z" /><path
         id="path943"
         style="opacity:1;fill:#000000;fill-opacity:1;fill-rule:nonzero;stroke:none;stroke-width:1;stop-opacity:1"
         d="m 174.64103,-181.80328 c 1.07799,-0.6355 2.76558,-1.18861 4.50731,-1.18861 2.15598,0 3.37284,1.02385 3.37284,2.54433 0,1.40986 -0.93912,2.24072 -3.29046,3.09746 -3.09745,1.10388 -5.06043,2.73499 -5.06043,5.41819 0,3.06921 2.54434,5.36406 6.60916,5.36406 2.01947,0 3.48346,-0.44249 4.45318,-0.93912 l -0.80261,-2.73734 c -0.69198,0.36011 -1.99122,0.88498 -3.73295,0.88498 -2.15833,0 -3.06921,-1.13447 -3.06921,-2.24071 0,-1.43575 1.07799,-2.10184 3.56584,-3.06921 3.23632,-1.21686 4.78505,-2.84796 4.78505,-5.53117 0,-3.01507 -2.2666,-5.61119 -7.05165,-5.61119 -1.99122,0 -4.03658,0.55311 -5.06043,1.18861 z" /><path
         id="path947"
         style="opacity:1;fill:#000000;fill-opacity:1;fill-rule:nonzero;stroke:none;stroke-width:1;stop-opacity:1"
         d="m 192.30688,-179.86761 c 0,-0.33187 0.0282,-0.6355 0.0824,-0.93912 0.36011,-1.38397 1.54873,-2.37723 3.01507,-2.37723 2.15598,0 3.42933,1.79351 3.42933,4.45083 0,2.37722 -1.16272,4.31196 -3.34695,4.31196 -1.40986,0 -2.70909,-1.0215 -3.06921,-2.5161 -0.0565,-0.27538 -0.11062,-0.58136 -0.11062,-0.85674 z m -3.40108,3.34695 c 0,1.76997 -0.0541,3.20572 -0.11062,4.47907 h 2.98683 l 0.16476,-2.0736 h 0.0565 c 0.99561,1.52048 2.57259,2.37722 4.61794,2.37722 3.0951,0 5.66769,-2.65496 5.66769,-6.85865 0,-4.86743 -3.06922,-7.21641 -6.13843,-7.21641 -1.68524,0 -3.09745,0.72023 -3.78944,1.79822 h -0.0541 v -6.96927 h -3.40108 z" /><path
         id="path951"
         style="opacity:1;fill:#000000;fill-opacity:1;fill-rule:nonzero;stroke:none;stroke-width:1;stop-opacity:1"
         d="m 207.73272,-178.78891 c 0,-2.60083 1.29924,-4.5638 3.34459,-4.5638 1.93709,0 3.29281,1.88295 3.29281,4.61793 0,2.1042 -0.94147,4.53556 -3.26456,4.53556 -2.40547,0 -3.37284,-2.35133 -3.37284,-4.58969 m 10.14675,0.13887 c 0,-4.94981 -3.48346,-7.16228 -6.91278,-7.16228 -3.78709,0 -6.74567,2.59847 -6.74567,6.93868 0,4.42729 2.90445,7.13638 6.96692,7.13638 4.01068,0 6.69153,-2.81972 6.69153,-6.91278" /><path
         id="path955"
         style="opacity:1;fill:#000000;fill-opacity:1;fill-rule:nonzero;stroke:none;stroke-width:1;stop-opacity:1"
         d="m 220.67001,-176.38344 c 0,1.82411 -0.0282,3.15159 -0.11062,4.34256 h 2.93269 l 0.13652,-2.54434 h 0.0824 c 0.66609,1.8806 2.24071,2.84561 3.70706,2.84561 0.32951,0 0.52487,-0.0259 0.80025,-0.08 v -3.18218 c -0.30362,0.0565 -0.60725,0.0847 -1.0215,0.0847 -1.60522,0 -2.73734,-1.02386 -3.04097,-2.57258 -0.0588,-0.30598 -0.0847,-0.66374 -0.0847,-1.0215 v -6.99752 h -3.40108 z" /><path
         id="path959"
         style="opacity:1;fill:#000000;fill-opacity:1;fill-rule:nonzero;stroke:none;stroke-width:1;stop-opacity:1"
         d="m 235.04634,-168.5852 v -3.45757 h 3.23397 v -2.54198 h -3.23397 v -5.94778 c 0,-1.65935 0.44249,-2.48549 1.74173,-2.48549 0.60725,0 0.93912,0.0259 1.32748,0.13651 l 0.0541,-2.57258 c -0.49663,-0.193 -1.40986,-0.35776 -2.45961,-0.35776 -1.27099,0 -2.2972,0.41425 -2.9327,1.10623 -0.74612,0.77201 -1.07799,2.01947 -1.07799,3.78709 v 6.33378 h -1.90648 v 2.54198 h 1.90648 v 2.51609 z" /><path
         d="m 240.85195,-172.04206 h 3.40108 v -13.46546 h -3.40108 z m 3.61997,3.76119 c 0,-0.99561 -0.74612,-1.8241 -1.93473,-1.8241 -1.13212,0 -1.87824,0.82849 -1.87824,1.8241 0,1.04975 0.77201,1.85236 1.90648,1.85236 1.16037,0 1.8806,-0.80261 1.90649,-1.85236"
         style="opacity:1;fill:#000000;fill-opacity:1;fill-rule:nonzero;stroke:none;stroke-width:1;stop-opacity:1"
         id="path961" /><path
         id="path965"
         style="opacity:1;fill:#000000;fill-opacity:1;fill-rule:nonzero;stroke:none;stroke-width:1;stop-opacity:1"
         d="m 250.08547,-172.0423 2.18422,-6.83041 c 0.38601,-1.18861 0.66374,-2.2666 0.91323,-3.37283 h 0.0824 c 0.24714,1.10623 0.55312,2.15598 0.91088,3.37283 l 2.15833,6.83041 h 3.56584 l -5.14281,-13.46546 h -3.34459 l -5.0063,13.46546 z" /><path
         id="path969"
         style="opacity:1;fill:#000000;fill-opacity:1;fill-rule:nonzero;stroke:none;stroke-width:1;stop-opacity:1"
         d="m 269.93625,-177.35128 c 0.0282,1.2451 -0.52487,3.29046 -2.79383,3.29046 -2.10184,0 -2.98448,-1.90884 -3.12334,-3.29046 z m -5.91717,-2.37958 c 0.0824,-2.43136 1.96297,-3.48346 4.1472,-3.48346 1.57697,0 2.6832,0.24949 3.73295,0.60961 l 0.49663,-2.3231 c -1.16037,-0.49662 -2.76324,-0.85909 -4.70032,-0.85909 -4.36845,0 -6.94103,2.6832 -6.94103,6.80451 0,3.73295 2.26896,7.24466 6.58091,7.24466 4.3708,0 5.80655,-3.59644 5.80655,-6.55267 0,-0.63785 -0.0541,-1.13448 -0.10827,-1.44046 z" /><path
         id="path973"
         style="opacity:1;fill:#000000;fill-opacity:1;fill-rule:nonzero;stroke:none;stroke-width:1;stop-opacity:1"
         d="m 289.92331,-177.35128 c 0.0282,1.2451 -0.52723,3.29046 -2.79383,3.29046 -2.10184,0 -2.98448,-1.90884 -3.12334,-3.29046 z m -5.91717,-2.37958 c 0.0824,-2.43136 1.96297,-3.48346 4.1472,-3.48346 1.57461,0 2.6832,0.24949 3.73295,0.60961 l 0.49663,-2.3231 c -1.16273,-0.49662 -2.76559,-0.85909 -4.70032,-0.85909 -4.36845,0 -6.94103,2.6832 -6.94103,6.80451 0,3.73295 2.26896,7.24466 6.58091,7.24466 4.3708,0 5.80891,-3.59644 5.80891,-6.55267 0,-0.63785 -0.0565,-1.13448 -0.11063,-1.44046 z" /><path
         id="path977"
         style="opacity:1;fill:#000000;fill-opacity:1;fill-rule:nonzero;stroke:none;stroke-width:1;stop-opacity:1"
         d="m 299.76408,-168.5852 v -3.45757 h 3.23397 v -2.54198 h -3.23397 v -5.94778 c 0,-1.65935 0.44249,-2.48549 1.74173,-2.48549 0.60725,0 0.93912,0.0259 1.32748,0.13651 l 0.0541,-2.57258 c -0.49663,-0.193 -1.40986,-0.35776 -2.45961,-0.35776 -1.27099,0 -2.2972,0.41425 -2.9327,1.10623 -0.74612,0.77201 -1.07799,2.01947 -1.07799,3.78709 v 6.33378 h -1.90648 v 2.54198 h 1.90648 v 2.51609 z" /><path
         id="path981"
         style="opacity:1;fill:#000000;fill-opacity:1;fill-rule:nonzero;stroke:none;stroke-width:1;stop-opacity:1"
         d="m 326.36077,-184.65148 c -1.18861,-0.44014 -3.5117,-1.04975 -5.97366,-1.04975 -3.15159,0 -5.55706,0.80026 -7.32704,2.48785 -1.65935,1.57698 -2.60082,4.03658 -2.60082,6.85865 0.0306,5.91482 4.20369,9.67602 10.37035,9.67602 2.29485,0 4.09307,-0.46838 4.94981,-0.88263 l -0.74612,-2.73734 c -1.0215,0.46838 -2.26896,0.80025 -4.22958,0.80025 -3.98244,0 -6.77627,-2.34898 -6.77627,-6.69154 0,-4.22958 2.59847,-6.74802 6.47029,-6.74802 1.2451,0 2.13009,0.16711 2.57258,0.36246 v 4.67208 h -3.29045 v 2.68085 h 6.58091 z" /><path
         id="path985"
         style="opacity:1;fill:#000000;fill-opacity:1;fill-rule:nonzero;stroke:none;stroke-width:1;stop-opacity:1"
         d="m 331.77661,-172.0423 2.40547,-7.21641 c 0.27538,-0.83085 0.58136,-1.85471 0.77436,-2.60083 h 0.0824 c 0.19301,0.74612 0.44485,1.76998 0.71788,2.62907 l 2.10184,7.18817 h 3.62233 l -3.37284,-9.18174 c -1.85235,-5.02983 -3.09745,-7.27055 -4.67207,-8.65216 -1.35572,-1.16272 -2.73734,-1.60522 -3.56819,-1.71584 l -0.77201,2.84796 c 0.57901,0.13887 1.26864,0.4425 1.96062,0.94148 0.6661,0.41189 1.41221,1.21686 1.8806,2.12773 0.13887,0.24949 0.193,0.4425 0.193,0.60961 0,0.13651 -0.0259,0.33187 -0.16476,0.66374 l -4.94981,12.35922 z" /><path
         id="path989"
         style="opacity:1;fill:#000000;fill-opacity:1;fill-rule:nonzero;stroke:none;stroke-width:1;stop-opacity:1"
         d="m 343.4422,-176.05133 c 0,1.54873 -0.0541,2.84796 -0.11062,4.00833 h 2.90445 l 0.16476,-1.99122 h 0.0824 c 0.63549,1.0521 1.8547,2.29485 4.1472,2.29485 1.76997,0 3.15159,-0.99561 3.73295,-2.48785 h 0.0565 c 0.47073,0.74612 1.02385,1.30159 1.6311,1.68759 0.77437,0.52488 1.63111,0.80026 2.76559,0.80026 2.21246,0 4.47907,-1.51813 4.47907,-5.8348 v -7.93428 h -3.31635 v 7.44001 c 0,2.23836 -0.77672,3.56584 -2.40782,3.56584 -1.16037,0 -2.01712,-0.83085 -2.37723,-1.79822 -0.11062,-0.30363 -0.16476,-0.74612 -0.16476,-1.13213 v -8.0755 h -3.3187 v 7.79777 c 0,1.8806 -0.74847,3.20808 -2.32309,3.20808 -1.27099,0 -2.13009,-0.99561 -2.45961,-1.90884 -0.11297,-0.36012 -0.16946,-0.74612 -0.16946,-1.13213 v -7.96488 h -3.31635 z" /><path
         id="path993"
         style="opacity:1;fill:#000000;fill-opacity:1;fill-rule:nonzero;stroke:none;stroke-width:1;stop-opacity:1"
         d="m 366.88588,-176.05133 c 0,1.54873 -0.0541,2.84796 -0.11062,4.00833 h 2.95858 l 0.16712,-2.01711 h 0.0824 c 0.60961,1.04975 2.0736,2.32074 4.31196,2.32074 2.35134,0 4.78505,-1.51813 4.78505,-5.77831 v -7.99077 h -3.40108 v 7.60241 c 0,1.93709 -0.72023,3.40344 -2.57258,3.40344 -1.35337,0 -2.29485,-0.96737 -2.65496,-1.99122 -0.10827,-0.27774 -0.16476,-0.69199 -0.16476,-1.08035 v -7.93428 h -3.40108 z" /><path
         d="m 382.69938,-172.04206 h 3.40108 v -13.46546 h -3.40108 z m 3.61997,3.76119 c 0,-0.99561 -0.74612,-1.8241 -1.93238,-1.8241 -1.13448,0 -1.88295,0.82849 -1.88295,1.8241 0,1.04975 0.77436,1.85236 1.90884,1.85236 1.16037,0 1.8806,-0.80261 1.90649,-1.85236"
         style="opacity:1;fill:#000000;fill-opacity:1;fill-rule:nonzero;stroke:none;stroke-width:1;stop-opacity:1"
         id="path995" /><path
         id="path999"
         style="opacity:1;fill:#000000;fill-opacity:1;fill-rule:nonzero;stroke:none;stroke-width:1;stop-opacity:1"
         d="m 398.79037,-177.59983 c 0,0.27538 -0.0282,0.58136 -0.0847,0.8285 -0.30128,1.27334 -1.38162,2.35133 -2.9021,2.35133 -2.21247,0 -3.42933,-1.85235 -3.42933,-4.39669 0,-2.46196 1.18862,-4.31431 3.34695,-4.31431 1.38161,0 2.51609,0.88499 2.90445,2.24071 0.11063,0.30363 0.16476,0.72023 0.16476,1.0521 z m 0,-6.05604 h -0.0541 c -0.80261,-1.29924 -2.21483,-2.15598 -4.1778,-2.15598 -3.04097,0 -5.63944,2.62672 -5.63944,6.8304 0,4.92157 3.15159,7.24231 6.0278,7.24231 1.87824,0 3.20807,-0.8285 3.92595,-2.0736 l 0.0565,-0.0259 0.0824,1.79586 h 3.29045 c -0.0565,-1.2145 -0.11062,-2.48785 -0.11062,-3.89771 v -15.04478 h -3.40108 z" /><path
         id="path1003"
         style="opacity:1;fill:#000000;fill-opacity:1;fill-rule:nonzero;stroke:none;stroke-width:1;stop-opacity:1"
         d="m 417.89409,-181.47117 c 0,-1.60286 0.0541,-2.93034 0.11062,-4.03658 h -2.95858 l -0.16712,2.01947 h -0.0824 c -0.57901,-0.94148 -1.90885,-2.32545 -4.34021,-2.32545 -2.43371,0 -4.67442,1.46635 -4.67442,5.8654 v 7.90604 h 3.40343 v -7.32704 c 0,-2.24071 0.71788,-3.67881 2.51609,-3.67881 1.38162,0 2.26661,0.94147 2.59612,1.82646 0.14122,0.27538 0.19536,0.66374 0.19536,1.04975 v 8.12964 h 3.40108 z" /><path
         id="path1007"
         style="opacity:1;fill:#000000;fill-opacity:1;fill-rule:nonzero;stroke:none;stroke-width:1;stop-opacity:1"
         d="m 429.89178,-177.35128 c 0.0282,1.2451 -0.52487,3.29046 -2.79383,3.29046 -2.10184,0 -2.98448,-1.90884 -3.12334,-3.29046 z m -5.91717,-2.37958 c 0.0824,-2.43136 1.96297,-3.48346 4.1472,-3.48346 1.57461,0 2.6832,0.24949 3.73295,0.60961 l 0.49663,-2.3231 c -1.16037,-0.49662 -2.76559,-0.85909 -4.69797,-0.85909 -4.3708,0 -6.94338,2.6832 -6.94338,6.80451 0,3.73295 2.26896,7.24466 6.58091,7.24466 4.3708,0 5.80655,-3.59644 5.80655,-6.55267 0,-0.63785 -0.0541,-1.13448 -0.10827,-1.44046 z" /><path
         id="path1011"
         style="opacity:1;fill:#000000;fill-opacity:1;fill-rule:nonzero;stroke:none;stroke-width:1;stop-opacity:1"
         d="m 450.57059,-177.65514 c 0,0.27538 -0.0282,0.6355 -0.0847,0.91323 -0.30128,1.29924 -1.38162,2.37723 -2.93035,2.37723 -2.18422,0 -3.40108,-1.93474 -3.40108,-4.42494 0,-2.48785 1.21686,-4.28607 3.37519,-4.28607 1.38162,0 2.59848,0.94148 2.93035,2.40547 0.0824,0.30363 0.11062,0.6355 0.11062,0.99561 z m 3.40108,11.77786 v -15.84268 c 0,-1.38162 0.0541,-2.87621 0.11062,-3.78944 h -3.01507 l -0.16476,2.13009 h -0.0565 c -0.80025,-1.49459 -2.43371,-2.43372 -4.36845,-2.43372 -3.23396,0 -5.7783,2.73734 -5.7783,6.8869 -0.0283,4.50496 2.79383,7.18816 6.0278,7.18816 1.85235,0 3.17983,-0.74847 3.78944,-1.74173 h 0.0541 v 7.60242 z" /><path
         id="path1015"
         style="opacity:1;fill:#000000;fill-opacity:1;fill-rule:nonzero;stroke:none;stroke-width:1;stop-opacity:1"
         d="m 469.67431,-181.47117 c 0,-1.60286 0.0541,-2.93034 0.11062,-4.03658 h -2.95858 l -0.16712,2.01947 h -0.0824 c -0.57901,-0.94148 -1.90885,-2.32545 -4.34021,-2.32545 -2.43371,0 -4.67442,1.46635 -4.67442,5.8654 v 7.90604 h 3.40108 v -7.32704 c 0,-2.24071 0.72023,-3.67881 2.51844,-3.67881 1.38162,0 2.26661,0.94147 2.59612,1.82646 0.14122,0.27538 0.19536,0.66374 0.19536,1.04975 v 8.12964 h 3.40108 z" /><path
         id="path1019"
         style="opacity:1;fill:#000000;fill-opacity:1;fill-rule:nonzero;stroke:none;stroke-width:1;stop-opacity:1"
         d="m 481.67083,-169.71897 h -5.30992 v 2.84796 h 14.07506 v -2.84796 h -5.36406 v -15.7909 h -3.40108 z" /><path
         id="path1023"
         style="opacity:1;fill:#000000;fill-opacity:1;fill-rule:nonzero;stroke:none;stroke-width:1;stop-opacity:1"
         d="m 491.09853,-176.38344 c 0,1.82411 -0.0282,3.15159 -0.11062,4.34256 h 2.93034 l 0.13887,-2.54434 h 0.0824 c 0.66609,1.8806 2.23835,2.84561 3.70706,2.84561 0.32951,0 0.52487,-0.0259 0.80025,-0.08 v -3.18218 c -0.30362,0.0565 -0.60725,0.0847 -1.0215,0.0847 -1.60522,0 -2.73969,-1.02386 -3.04097,-2.57258 -0.0588,-0.30598 -0.0847,-0.66374 -0.0847,-1.0215 v -6.99752 h -3.40108 z" /><path
         id="path1027"
         style="opacity:1;fill:#000000;fill-opacity:1;fill-rule:nonzero;stroke:none;stroke-width:1;stop-opacity:1"
         d="m 507.8262,-178.9266 c -2.40547,0.0282 -4.70032,-0.47074 -4.70032,-2.51609 0,-1.32748 0.85675,-1.93709 1.93474,-1.93709 1.38396,0 2.35133,0.88499 2.68085,1.85235 0.0847,0.24949 0.0847,0.49899 0.0847,0.74612 z m 3.31635,-3.34695 c 0,-1.21685 0.0565,-2.40547 0.2236,-3.23632 h -3.06921 l -0.24949,1.49459 h -0.0824 c -0.80261,-1.04974 -2.21247,-1.79586 -3.98244,-1.79586 -2.7091,0 -4.22958,1.96062 -4.22958,4.00833 0,3.37284 3.01272,5.11457 7.98842,5.08868 v 0.22124 c 0,0.88264 -0.35776,2.34899 -2.73499,2.34899 -1.32748,0 -2.71145,-0.41425 -3.62233,-0.99561 l -0.66609,2.21246 c 0.99796,0.60726 2.73969,1.18862 4.86978,1.18862 4.31196,0 5.55471,-2.73499 5.55471,-5.69593 z" /><path
         id="path1031"
         style="opacity:1;fill:#000000;fill-opacity:1;fill-rule:nonzero;stroke:none;stroke-width:1;stop-opacity:1"
         d="m 516.61675,-172.0423 2.18422,-6.83041 c 0.38601,-1.18861 0.66374,-2.2666 0.91323,-3.37283 h 0.0824 c 0.24714,1.10623 0.55312,2.15598 0.91088,3.37283 l 2.15833,6.83041 h 3.5682 l -5.14281,-13.46546 h -3.34695 l -5.0063,13.46546 z" /><path
         id="path1035"
         style="opacity:1;fill:#000000;fill-opacity:1;fill-rule:nonzero;stroke:none;stroke-width:1;stop-opacity:1"
         d="m 535.47192,-178.9266 c -2.40547,0.0282 -4.70032,-0.47074 -4.70032,-2.51609 0,-1.32748 0.85675,-1.93709 1.93474,-1.93709 1.38396,0 2.35133,0.88499 2.68085,1.85235 0.0847,0.24949 0.0847,0.49899 0.0847,0.74612 z m 3.31635,-3.34695 c 0,-1.21685 0.0565,-2.40547 0.2236,-3.23632 h -3.06921 l -0.24949,1.49459 h -0.0824 c -0.80261,-1.04974 -2.21247,-1.79586 -3.98244,-1.79586 -2.7091,0 -4.22958,1.96062 -4.22958,4.00833 0,3.37284 3.01272,5.11457 7.98842,5.08868 v 0.22124 c 0,0.88264 -0.35776,2.34899 -2.73499,2.34899 -1.32748,0 -2.71145,-0.41425 -3.62233,-0.99561 l -0.66609,2.21246 c 0.99796,0.60726 2.73969,1.18862 4.86978,1.18862 4.31196,0 5.55471,-2.73499 5.55471,-5.69593 z" /><path
         d="m 542.38071,-172.04206 h 3.40108 v -13.46546 h -3.40108 z m 3.62232,3.76119 c 0,-0.99561 -0.74612,-1.8241 -1.93473,-1.8241 -1.13212,0 -1.87824,0.82849 -1.87824,1.8241 0,1.04975 0.77201,1.85236 1.90649,1.85236 1.16036,0 1.88059,-0.80261 1.90648,-1.85236"
         style="opacity:1;fill:#000000;fill-opacity:1;fill-rule:nonzero;stroke:none;stroke-width:1;stop-opacity:1"
         id="path1037" /><path
         d="m 549.45825,-165.8754 h 3.40108 v -19.63212 h -3.40108 z"
         style="opacity:1;fill:#000000;fill-opacity:1;fill-rule:nonzero;stroke:none;stroke-width:1;stop-opacity:1"
         id="path1039" /></g></g></svg>
